<svg width="25" height="18" viewBox="0 0 25 18" fill="none" xmlns="http://www.w3.org/2000/svg">
<path d="M6.22685 14.5293C5.31101 14.5293 4.56635 15.2742 4.56635 16.1898C4.56635 17.1054 5.31101 17.8503 6.22685 17.8503C7.14268 17.8503 7.88734 17.1054 7.88734 16.1898C7.88734 15.2744 7.14268 14.5293 6.22685 14.5293ZM6.22685 17.0202C5.76913 17.0202 5.3967 16.6477 5.3967 16.19C5.3967 15.7321 5.76934 15.3599 6.22685 15.3599C6.68456 15.3599 7.05699 15.7323 7.05699 16.19C7.05719 16.6477 6.68455 17.0202 6.22685 17.0202Z" fill="#01C3D0"/>
<path d="M13.6988 14.5293C12.7829 14.5293 12.0383 15.2742 12.0383 16.1898C12.0383 17.1054 12.7829 17.8503 13.6988 17.8503C14.6146 17.8503 15.3593 17.1054 15.3593 16.1898C15.3593 15.2744 14.6146 14.5293 13.6988 14.5293ZM13.6988 17.0202C13.241 17.0202 12.8686 16.6477 12.8686 16.19C12.8686 15.7321 13.2413 15.3599 13.6988 15.3599C14.1565 15.3599 14.5289 15.7323 14.5289 16.19C14.5291 16.6477 14.1565 17.0202 13.6988 17.0202Z" fill="#01C3D0"/>
<path d="M24.4925 6.64195H17.3332L17.4191 6.34099C17.4235 6.32575 17.4187 6.31009 17.4214 6.29444C17.4253 6.27157 17.435 6.25077 17.435 6.22687C17.435 3.21669 15.7992 0 11.2081 0C10.9787 0 10.7931 0.185804 10.7931 0.415077V5.81191H4.04938L3.30514 3.2071C3.25406 3.02892 3.09111 2.90614 2.90572 2.90614H0.415077C0.185598 2.90614 0 3.09195 0 3.32122C0 3.55049 0.185598 3.7363 0.415077 3.7363H2.59285L3.33667 6.34111L4.48116 10.3462C4.73474 11.2345 5.39847 11.9242 6.22677 12.2484V13.6994C6.22677 13.9287 6.41237 14.1145 6.64185 14.1145H13.2837C13.4277 14.1145 13.561 14.0399 13.6368 13.9178C13.7126 13.7954 13.7194 13.6425 13.6552 13.5138L13.1253 12.4539H13.4809C13.7598 12.4539 14.0298 12.4064 14.289 12.3303C14.7687 13.8699 16.1942 14.9448 17.8502 14.9448H21.1712C23.2314 14.9448 24.9074 13.2687 24.9074 11.2087V7.05749C24.9074 6.82801 24.7216 6.64221 24.4923 6.64221L24.4925 6.64195ZM16.6219 9.13259H24.0774V9.98399C21.8906 10.1822 20.1455 11.9274 19.9473 14.1141H19.0761C18.9249 12.4178 17.8554 10.9626 16.2847 10.3129L16.6219 9.13259ZM24.0774 7.47209V8.30224L16.8592 8.30244L17.0965 7.4723L24.0774 7.47209ZM11.6237 0.83969C15.8023 1.04095 16.4979 4.28699 16.5921 5.81133H11.6237V0.83969ZM12.6125 13.2839H7.05743V12.4538H12.1976L12.6125 13.2839ZM12.4541 11.6234H7.27538C6.35359 11.6234 5.53309 11.0045 5.27991 10.118L4.28682 6.6419H16.47L16.0092 8.25504L15.4767 10.1148C15.4747 10.1216 15.4716 10.1304 15.4695 10.1374C15.4423 10.2293 15.4081 10.3175 15.3692 10.403C15.3344 10.481 15.2905 10.554 15.2464 10.6265C15.2277 10.6569 15.2126 10.6901 15.1925 10.7196C15.1599 10.7674 15.1202 10.8096 15.0837 10.8543C15.0042 10.9513 14.9173 11.0405 14.8221 11.1215C14.7891 11.1495 14.759 11.1808 14.7242 11.2067C14.6832 11.2374 14.6379 11.2617 14.5947 11.2893C14.5376 11.3256 14.4818 11.3633 14.421 11.394C14.1355 11.5398 13.8156 11.6235 13.4815 11.6235L12.4541 11.6234ZM15.0514 11.9916C15.0926 11.9652 15.1285 11.9326 15.168 11.9044C15.2053 11.8776 15.242 11.8507 15.2782 11.822C15.3639 11.7547 15.4443 11.6828 15.5213 11.6066C15.5497 11.5785 15.5784 11.5514 15.6056 11.5221C15.6814 11.4407 15.7506 11.3548 15.8161 11.2654C15.8408 11.2323 15.8666 11.2003 15.8898 11.1659C15.9106 11.1348 15.9321 11.1048 15.9516 11.0728C17.2209 11.5919 18.0917 12.7535 18.2404 14.1141H17.8507C16.5298 14.1141 15.3953 13.2372 15.0514 11.9916ZM21.1718 14.1141H20.7812C20.9732 12.3854 22.3486 11.0098 24.0775 10.8176V11.2081C24.0775 12.8106 22.7738 14.1141 21.1718 14.1141Z" fill="#01C3D0"/>
</svg>
