<svg width="25" height="25" viewBox="0 0 25 25" fill="none" xmlns="http://www.w3.org/2000/svg">
<path d="M13.2612 8.41636L11.8893 8.14189C11.3873 8.04138 11.0184 7.61851 10.9716 7.1165C11.1792 7.11135 11.3466 6.94312 11.3466 6.73408V3.65903C11.3466 3.02314 10.8293 2.50586 10.1934 2.50586H5.58089C4.945 2.50586 4.42772 3.02314 4.42772 3.65903V6.73408C4.42772 6.94312 4.59519 7.11136 4.80271 7.1165C4.75598 7.61851 4.3871 8.04136 3.88508 8.14189L2.5133 8.41636C1.61818 8.59527 0.96833 9.38794 0.96833 10.3008V10.5778C0.96833 10.9989 1.20026 11.3871 1.5737 11.5906C1.68223 11.6495 1.73716 11.8004 1.73716 12.0392V13.0926C1.73716 13.2309 1.67346 13.3549 1.57523 13.4083C1.20101 13.6112 0.968296 13.9995 0.968296 14.4216V15.9591C0.968296 16.3803 1.20023 16.7684 1.57367 16.9719C1.6822 17.0307 1.73713 17.1817 1.73713 17.4204V18.4738C1.73713 18.6121 1.67342 18.736 1.5752 18.7894C1.20097 18.9924 0.968262 19.3807 0.968262 19.8028V21.3403C0.968262 21.9762 1.48555 22.4935 2.12144 22.4935H13.6527C14.2886 22.4935 14.8059 21.9762 14.8059 21.3403V19.8028C14.8059 19.3817 14.5739 18.9935 14.2005 18.79C14.0921 18.7311 14.0372 18.5802 14.0372 18.3416V17.2882C14.0372 17.1499 14.1009 17.0261 14.1992 16.9727C14.5734 16.7696 14.8059 16.3811 14.8059 15.9591V14.4216C14.8059 14.0005 14.574 13.6124 14.2005 13.4088C14.0922 13.3499 14.0372 13.199 14.0372 12.9602V11.9068C14.0372 11.7685 14.101 11.6448 14.1992 11.5913C14.5734 11.3882 14.8059 10.9997 14.8059 10.5778V10.3008C14.8059 9.38798 14.1561 8.59526 13.2611 8.41635L13.2612 8.41636ZM5.19678 3.65904C5.19678 3.44713 5.3692 3.27471 5.58111 3.27471H10.1937C10.4056 3.27471 10.578 3.44713 10.578 3.65904V6.34971H5.19664L5.19678 3.65904ZM14.0376 10.578C14.0376 10.7178 13.9592 10.8473 13.8328 10.9158C13.4849 11.105 13.2687 11.4845 13.2687 11.907V12.9605C13.2687 13.6351 13.5758 13.9441 13.8331 14.0841C13.9592 14.1529 14.0376 14.2823 14.0376 14.4219V15.9594C14.0376 16.0992 13.9592 16.2287 13.8328 16.2972C13.4849 16.4862 13.2687 16.8658 13.2687 17.2882V18.3417C13.2687 19.0163 13.5758 19.3253 13.8332 19.4653C13.9592 19.5341 14.0376 19.6635 14.0376 19.8031V21.3406C14.0376 21.5525 13.8652 21.7249 13.6533 21.7249H2.12204C1.91013 21.7249 1.7377 21.5525 1.7377 21.3406V19.8031C1.7377 19.6633 1.81591 19.534 1.94236 19.4655C2.29026 19.2766 2.50638 18.8967 2.50638 18.474V17.4206C2.50638 16.746 2.19929 16.437 1.94197 16.297C1.8159 16.2283 1.7377 16.099 1.7377 15.9594V14.4219C1.7377 14.2821 1.8159 14.1527 1.94235 14.0843C2.29025 13.8954 2.50637 13.5155 2.50637 13.0928V12.0394C2.50637 11.3648 2.19928 11.0558 1.94196 10.9158C1.81589 10.8471 1.73769 10.7178 1.73769 10.578V10.301C1.73769 9.75322 2.12755 9.27773 2.66464 9.17016L4.03661 8.89569C4.89643 8.72384 5.52987 7.98568 5.57851 7.11859H10.197C10.2456 7.98568 10.879 8.72382 11.7389 8.89584L13.1108 9.17031C13.6479 9.27769 14.0378 9.75322 14.0378 10.301L14.0376 10.578Z" fill="#206CB3"/>
<path d="M12.5 10.5781H3.2749C3.06261 10.5781 2.89056 10.7502 2.89056 10.9625C2.89056 11.1747 3.06261 11.3468 3.2749 11.3468H12.5C12.7123 11.3468 12.8843 11.1747 12.8843 10.9625C12.8843 10.7504 12.7123 10.5781 12.5 10.5781Z" fill="#206CB3"/>
<path d="M12.5 14.8062H3.2749C3.06261 14.8062 2.89056 14.9782 2.89056 15.1905C2.89056 15.4028 3.06261 15.5748 3.2749 15.5748H12.5C12.7123 15.5748 12.8843 15.4028 12.8843 15.1905C12.8843 14.9782 12.7123 14.8062 12.5 14.8062Z" fill="#206CB3"/>
<path d="M12.5 18.6499H3.2749C3.06261 18.6499 2.89056 18.8219 2.89056 19.0342C2.89056 19.2465 3.06261 19.4186 3.2749 19.4186H12.5C12.7123 19.4186 12.8843 19.2465 12.8843 19.0342C12.8843 18.8221 12.7123 18.6499 12.5 18.6499Z" fill="#206CB3"/>
<path d="M23.8867 7.97153L22.1093 6.54941V6.34971C22.3216 6.34971 22.4936 6.17767 22.4936 5.96538V4.04355C22.4936 3.61955 22.1488 3.2749 21.725 3.2749H18.6499C18.2259 3.2749 17.8813 3.61975 17.8813 4.04355V5.96538C17.8813 6.17767 18.0533 6.34971 18.2656 6.34971V6.54941L16.4881 7.97153C16.3966 8.0442 16.3436 8.15482 16.3436 8.27155V15.9591C16.3436 16.0609 16.3842 16.1587 16.4561 16.2308L16.9997 16.7745C17.0724 16.8471 17.1122 16.9438 17.1122 17.0464V18.7158C17.1122 18.8184 17.0722 18.9151 16.9997 18.9878L16.4561 19.5314C16.3842 19.6033 16.3436 19.7011 16.3436 19.803V21.3405C16.3436 21.9764 16.8609 22.4936 17.4967 22.4936H22.8781C23.514 22.4936 24.0313 21.9764 24.0313 21.3405V19.803C24.0313 19.7011 23.9906 19.6033 23.9187 19.5312L23.3751 18.9876C23.3025 18.9151 23.2624 18.8184 23.2624 18.7158V17.0464C23.2624 16.9438 23.3025 16.8471 23.3749 16.7745L23.9185 16.2308C23.9906 16.1589 24.0313 16.0611 24.0313 15.9592V8.27174C24.0313 8.15501 23.978 8.04439 23.8869 7.97172L23.8867 7.97153ZM18.6499 4.04335L21.7249 4.04278V5.58087H18.6499V4.04335ZM18.89 7.03408C18.9812 6.96141 19.0344 6.85078 19.0344 6.73405V6.34972H21.3406V6.73405C21.3406 6.85078 21.3936 6.96141 21.485 7.03408L23.2624 8.4562V8.65589H17.1125V8.4562L18.89 7.03408ZM23.2624 14.806H17.1125V9.4247H23.2624V14.806ZM22.8316 16.231C22.6138 16.4487 22.4938 16.7384 22.4938 17.0464V18.7158C22.4938 19.0238 22.6138 19.3135 22.8316 19.5311L23.2624 19.9622V21.3405C23.2624 21.5524 23.09 21.7248 22.8781 21.7248H17.4968C17.2849 21.7248 17.1124 21.5524 17.1124 21.3405V19.9621L17.5433 19.5312C17.7611 19.3136 17.8811 19.0238 17.8811 18.7158V17.0465C17.8811 16.7384 17.7611 16.4487 17.5433 16.2311L17.1122 15.8V15.575H23.2621V15.8002L22.8316 16.231Z" fill="#206CB3"/>
<path d="M20.1875 14.4217C21.0353 14.4217 21.725 13.732 21.725 12.8842C21.725 12.1825 20.7234 10.3631 20.5226 10.0053C20.3864 9.76322 19.9885 9.76322 19.8522 10.0053C19.6515 10.3631 18.65 12.1825 18.65 12.8842C18.65 13.732 19.3399 14.4217 20.1875 14.4217ZM20.1875 11.0053C20.5991 11.804 20.9563 12.6229 20.9563 12.8842C20.9563 13.3082 20.6115 13.6528 20.1877 13.6528C19.7637 13.6528 19.419 13.308 19.419 12.8842C19.4188 12.6229 19.7759 11.804 20.1875 11.0053Z" fill="#206CB3"/>
</svg>
