<svg width="24" height="19" viewBox="0 0 24 19" fill="none" xmlns="http://www.w3.org/2000/svg">
<path d="M21.3867 8.13335C20.6482 7.64146 19.8027 7.55332 19.0063 7.88597L18.4406 8.12077C18.1986 8.22166 17.9481 8.28613 17.6952 8.32066C17.7662 7.3252 18.5899 6.53443 19.6033 6.53443C19.8156 6.53443 19.9876 6.36239 19.9876 6.1501C19.9876 5.93781 19.8156 5.76576 19.6033 5.76576C18.9321 5.76576 18.3189 6.01449 17.8472 6.42245C17.7822 5.98758 17.5796 5.56699 17.2495 5.23686C16.6849 4.67192 15.8573 4.4684 15.1405 4.71786C15.0297 4.75658 14.9427 4.84356 14.904 4.95438C14.6541 5.67059 14.8578 6.49857 15.423 7.06331C15.8274 7.46805 16.3669 7.68758 16.9041 7.68758C16.9458 7.68758 16.987 7.67995 17.0286 7.67728C16.9662 7.88328 16.9304 8.10014 16.9193 8.32367C16.6593 8.28991 16.4016 8.2241 16.153 8.12034L15.5901 7.88689C15.1837 7.71523 14.7568 7.65457 14.3336 7.70817C14.287 7.45773 14.2605 7.2048 14.2605 6.95094V6.13785C14.2605 5.11534 13.8558 4.15211 13.1205 3.42486C12.4876 2.80231 11.6753 2.42257 10.799 2.32984C10.9686 1.44234 11.7483 0.768662 12.6844 0.768662C12.8967 0.768662 13.0688 0.596622 13.0688 0.384332C13.0688 0.172041 12.8967 0 12.6844 0C11.3255 0 10.2014 1.01357 10.0218 2.32412C8.04807 2.50265 6.49626 4.14395 6.49626 6.13784V6.65396C6.12833 6.57633 5.75524 6.53437 5.38142 6.53437C4.81779 6.53437 4.27458 6.6223 3.76359 6.78385C3.69264 6.53341 3.57362 6.30568 3.41474 6.10768C3.68864 6.04397 3.94936 5.90626 4.15898 5.69645C4.5704 5.28523 4.71801 4.68117 4.5353 4.15739C4.49658 4.04676 4.4096 3.95979 4.29898 3.92107C3.77579 3.73873 3.17134 3.88598 2.75992 4.29739C2.45455 4.60256 2.29529 5.01419 2.30788 5.42024C2.18314 5.39468 2.0542 5.38114 1.92202 5.38114C1.70973 5.38114 1.53769 5.55318 1.53769 5.76547C1.53769 5.97776 1.70973 6.1498 1.92202 6.1498C2.47876 6.1498 2.94453 6.54653 3.05176 7.07202C1.24951 7.94272 0 9.78349 0 11.9155C0 14.8828 2.41397 17.2969 5.38135 17.2969C5.82461 17.2969 6.26426 17.2385 6.69282 17.1296C7.61904 17.892 8.78901 18.377 10.075 18.442C10.1776 18.4476 10.2794 18.4501 10.3813 18.4501C11.7695 18.4501 13.0817 17.9603 14.1189 17.0814C14.744 17.4771 15.426 17.6801 16.1186 17.6801C16.4726 17.6801 16.8293 17.6273 17.1823 17.5201L17.2971 17.4825L17.4205 17.5229C18.5619 17.8666 19.7439 17.6431 20.7523 16.8939C21.8397 16.0804 22.6346 14.7054 22.9333 13.1202C23.0191 12.6577 23.0628 12.1776 23.0628 11.6927C23.0628 10.186 22.4206 8.822 21.3868 8.13342L21.3867 8.13335ZM3.3037 4.84087C3.45419 4.69038 3.65046 4.61294 3.84462 4.61199C3.84691 4.80463 3.76604 5.00242 3.61574 5.15291C3.46525 5.3034 3.26517 5.38408 3.07482 5.38179C3.07253 5.18934 3.1534 4.99135 3.3037 4.84087ZM15.9668 6.51973C15.6591 6.21207 15.5184 5.78809 15.5825 5.3959C15.9754 5.33277 16.3986 5.47277 16.7063 5.78023C17.0139 6.08789 17.1547 6.51187 17.0906 6.90406C16.6979 6.96872 16.2743 6.82758 15.9668 6.51973ZM0.769033 11.9157C0.769033 9.37246 2.83832 7.30318 5.38158 7.30318C5.74531 7.30318 6.10868 7.34647 6.46571 7.43211C6.46514 7.4365 6.46476 7.4407 6.46419 7.44508C6.42432 7.79298 6.33868 8.13576 6.21203 8.46779C6.20555 8.48476 6.19983 8.50193 6.19315 8.51872C6.12983 8.67874 6.05658 8.83591 5.9738 8.98964C5.96579 9.00471 5.95702 9.01958 5.94882 9.03446C5.86204 9.19124 5.76705 9.34517 5.66043 9.49394C4.95911 10.4795 4.5969 11.6336 4.61273 12.8316C4.61482 13.0048 4.62627 13.1772 4.64477 13.3485C4.65831 13.4788 4.68063 13.6064 4.70294 13.734C4.70886 13.7671 4.71248 13.8005 4.71896 13.8335C4.91313 14.8332 5.37453 15.7399 6.02702 16.4821C5.81359 16.5126 5.59786 16.5282 5.38156 16.5282C2.8383 16.5282 0.769013 14.4591 0.769013 11.9157L0.769033 11.9157ZM10.1138 17.6745C8.34735 17.5851 6.79535 16.5355 5.9828 15.0654C5.97441 15.05 5.9664 15.0343 5.9582 15.0189C5.89621 14.9039 5.83861 14.7862 5.78597 14.6664C5.76842 14.626 5.75297 14.5846 5.73638 14.5436C5.69556 14.4434 5.65608 14.3425 5.62193 14.2395C5.59924 14.1703 5.58112 14.0997 5.56166 14.0295C5.53896 13.9489 5.51455 13.8686 5.49605 13.7866C5.47392 13.687 5.45866 13.5859 5.44302 13.485C5.43387 13.427 5.42109 13.3698 5.41422 13.3112C5.39763 13.1714 5.38981 13.0303 5.38599 12.889C5.38542 12.867 5.38218 12.8455 5.3818 12.8233C5.36844 11.7855 5.68163 10.789 6.288 9.94116C6.42666 9.7468 6.54835 9.54481 6.6584 9.33862C6.66794 9.32069 6.67881 9.30333 6.68816 9.28541C6.72993 9.20473 6.7675 9.12252 6.80489 9.04031C6.82129 9.00446 6.83884 8.96898 6.85429 8.93293C6.88709 8.85626 6.91608 8.77843 6.94508 8.70062C6.96072 8.65846 6.97731 8.61669 6.99181 8.57416C7.01832 8.49654 7.0414 8.41833 7.0641 8.33975C7.0765 8.29702 7.08927 8.25449 7.10053 8.21157C7.12208 8.12918 7.14039 8.04602 7.15756 7.96266C7.16519 7.92509 7.17339 7.8877 7.18026 7.84994C7.19723 7.75705 7.21096 7.66359 7.22279 7.56975C7.22584 7.54514 7.22889 7.52054 7.23156 7.49594C7.24377 7.38474 7.25216 7.27297 7.25674 7.161C7.25674 7.16043 7.25674 7.16005 7.25693 7.15948V7.1591C7.25979 7.08967 7.26532 7.02024 7.26532 6.95062V6.13754C7.26513 4.44916 8.66171 3.07509 10.3785 3.07509C11.2107 3.07509 11.9929 3.39399 12.5806 3.9723C13.1682 4.55326 13.4917 5.3225 13.4917 6.13793V6.95101C13.4917 7.53373 13.5998 8.11181 13.8022 8.66649C13.8045 8.67298 13.8068 8.67946 13.8093 8.68595C13.856 8.8126 13.9077 8.93772 13.9645 9.06151C13.9699 9.07333 13.9748 9.08516 13.9804 9.09698C14.1043 9.36153 14.2487 9.61959 14.4177 9.86715L14.4509 9.91502L14.4517 9.91445L14.4778 9.95183C14.478 9.95202 14.478 9.95222 14.4782 9.95241L14.4776 9.95298C14.9663 10.6398 15.26 11.4289 15.3458 12.2582C15.3632 12.4255 15.375 12.5939 15.375 12.7642C15.3748 13.9506 14.942 15.0921 14.1553 15.9808C13.1411 17.1362 11.6715 17.7523 10.1138 17.6745ZM22.1777 12.9786C21.9143 14.3759 21.2271 15.5785 20.2929 16.2774C19.474 16.8862 18.5578 17.0625 17.6512 16.7895L17.4167 16.7128C17.3778 16.7001 17.3376 16.6936 17.2972 16.6936C17.2567 16.6936 17.2165 16.6999 17.1776 16.7126L16.951 16.7868C16.1827 17.0205 15.4106 16.9316 14.6965 16.532C14.7087 16.5183 14.7209 16.5045 14.7329 16.4908C15.6429 15.4616 16.144 14.1385 16.144 12.7652V12.7642V12.7635C16.144 12.4985 16.1232 12.2367 16.0869 11.9782C15.9629 11.0882 15.6309 10.2448 15.1037 9.5055L15.0546 9.4355C14.9541 9.28768 14.8645 9.13605 14.7829 8.98212C14.775 8.96744 14.7668 8.95275 14.7592 8.93806C14.6779 8.7807 14.6055 8.62106 14.5444 8.45856C14.7947 8.44501 15.046 8.49174 15.2931 8.59608L15.8576 8.83011C16.7855 9.21692 17.8079 9.21692 18.7358 8.83049L19.3017 8.5957C20.0097 8.30025 20.5943 8.52932 20.9605 8.77308C21.7832 9.32088 22.294 10.4397 22.294 11.6927C22.294 12.1304 22.2549 12.5634 22.1776 12.9786L22.1777 12.9786Z" fill="#FE6E4C"/>
<path d="M19.4111 9.2251C19.1988 9.2251 19.0268 9.39714 19.0268 9.60943C19.0268 9.82172 19.1988 9.99376 19.4111 9.99376C20.047 9.99376 20.5643 10.511 20.5643 11.1469C20.5643 11.3592 20.7363 11.5313 20.9486 11.5313C21.1609 11.5313 21.333 11.3592 21.333 11.1469C21.333 10.0872 20.4708 9.2251 19.4111 9.2251Z" fill="#FE6E4C"/>
<path d="M10.3779 9.60938C8.85244 9.60938 7.87949 12.021 7.87949 13.2824C7.87949 14.648 9.00024 15.7594 10.3779 15.7594C11.7556 15.7594 12.8764 14.6482 12.8764 13.2824C12.8764 12.021 11.9034 9.60938 10.3779 9.60938ZM10.3779 14.9907C9.42407 14.9907 8.64814 14.2244 8.64814 13.2825C8.64814 12.2159 9.50283 10.3782 10.3779 10.3782C11.2528 10.3782 12.1077 12.2158 12.1077 13.2824C12.1075 14.2246 11.3318 14.9907 10.3779 14.9907Z" fill="#FE6E4C"/>
<path d="M4.22802 8.45607C3.1683 8.45607 2.30619 9.31837 2.30619 10.3779C2.30619 10.5902 2.47823 10.7622 2.69052 10.7622C2.90281 10.7622 3.07485 10.5902 3.07485 10.3779C3.07485 9.742 3.59214 9.22472 4.22803 9.22472C4.44032 9.22472 4.61236 9.05268 4.61236 8.84039C4.61236 8.6281 4.44031 8.45607 4.22802 8.45607Z" fill="#FE6E4C"/>
</svg>
