<svg width="27" height="27" viewBox="0 0 27 27" fill="none" xmlns="http://www.w3.org/2000/svg">
<path d="M25.5387 13.0848H15.1606V12.6698C15.1606 12.4405 14.975 12.2547 14.7455 12.2547H9.61938C9.64677 12.1764 9.68035 12.1045 9.72011 12.0248C9.83197 11.8005 9.97142 11.5215 9.97142 11.0084C9.97142 10.4951 9.83197 10.2162 9.72011 9.99188C9.62474 9.80175 9.55634 9.66435 9.55634 9.34694C9.55634 9.03053 9.62494 8.89334 9.72011 8.70363C9.82022 8.5032 9.93702 8.24921 9.96153 7.8323L19.7153 8.10318C19.719 8.10339 19.7229 8.10339 19.7266 8.10339C19.8343 8.10339 19.9386 8.06116 20.016 7.98576C20.0964 7.9079 20.1417 7.80037 20.1417 7.68831V6.02781C20.1417 5.91575 20.0964 5.80822 20.016 5.73015C19.9361 5.65229 19.8296 5.60738 19.7153 5.61273L4.77089 6.02781C4.54595 6.0342 4.36715 6.21815 4.36715 6.44289V7.27303C4.36715 7.49777 4.54595 7.68173 4.77089 7.68791L5.81835 7.71695C5.81382 8.0107 5.74832 8.14851 5.65624 8.33162C5.54438 8.55574 5.40493 8.83424 5.40493 9.34697C5.40493 9.8601 5.54438 10.139 5.65624 10.3632C5.75161 10.5535 5.82021 10.6911 5.82021 11.0085C5.82021 11.326 5.75161 11.4634 5.65644 11.6535C5.57982 11.8069 5.49329 11.9923 5.44427 12.2547H1.4614C1.23192 12.2547 1.04633 12.4405 1.04633 12.6698V15.1605C1.04633 17.2462 2.4537 19.006 4.36738 19.5498V20.9722C4.36738 21.2014 4.55298 21.3872 4.78246 21.3872H11.4243C11.6538 21.3872 11.8394 21.2014 11.8394 20.9722V19.5498C12.8597 19.2597 13.7348 18.6251 14.3301 17.7776V20.5571H13.0846C12.8552 20.5571 12.6696 20.7429 12.6696 20.9722C12.6696 21.2014 12.8552 21.3872 13.0846 21.3872H20.3161L25.5387 21.3875C25.7681 21.3875 25.9537 21.2016 25.9537 20.9724V13.4999C25.9537 13.2704 25.7679 13.0846 25.5387 13.0846L25.5387 13.0848ZM25.1234 16.6201C25.1179 16.6164 25.1119 16.6137 25.1063 16.61C24.9976 16.5381 24.8853 16.472 24.77 16.412C24.7419 16.3974 24.7127 16.3855 24.6843 16.3715C24.5947 16.3276 24.5036 16.287 24.4105 16.2505C24.3697 16.2345 24.3287 16.2198 24.2873 16.2052C24.1996 16.1743 24.1108 16.1469 24.0206 16.1226C23.9812 16.1119 23.9425 16.1004 23.9029 16.0911C23.8871 16.0874 23.8718 16.082 23.856 16.0785C23.7845 15.2643 23.4506 14.5093 22.916 13.915H25.1234L25.1234 16.6201ZM20.563 16.9388C20.4272 17.0595 20.3012 17.1876 20.1903 17.3244C20.1741 17.3431 20.1578 17.3621 20.1419 17.3812C20.129 17.3658 20.116 17.3506 20.103 17.3357C19.9881 17.1942 19.8603 17.0638 19.7238 16.9419C19.6758 16.8988 19.6224 16.863 19.5721 16.8226C19.5001 16.7649 19.4312 16.7035 19.3542 16.6512C19.3509 16.6407 19.3466 16.6302 19.3437 16.6195C19.325 16.5488 19.3118 16.4775 19.3118 16.4059C19.3118 15.9479 19.6844 15.5757 20.1419 15.5757C20.5996 15.5757 20.9721 15.9482 20.9721 16.4059C20.9721 16.4775 20.9589 16.5488 20.9399 16.6195C20.937 16.6302 20.9327 16.6405 20.9294 16.651C20.8501 16.7048 20.7799 16.767 20.7061 16.8261C20.659 16.8644 20.6081 16.8986 20.563 16.9388ZM21.6348 13.915C22.3895 14.3634 22.8948 15.1291 23.0184 15.9908C22.9891 15.991 22.9605 15.9941 22.9315 15.9951C22.8923 15.9963 22.8534 15.998 22.8143 16.0007C22.7805 16.0027 22.7465 16.0029 22.7129 16.006C22.6734 16.0095 22.6346 16.0161 22.5953 16.0208C22.5658 16.0243 22.5366 16.0283 22.5073 16.0324C22.4711 16.0375 22.4344 16.0408 22.3986 16.047C22.3561 16.0544 22.3147 16.0653 22.2725 16.0742C22.2469 16.0795 22.2218 16.0851 22.1965 16.0909C22.1613 16.0991 22.1254 16.1051 22.0904 16.1144C22.0496 16.1251 22.0101 16.1395 21.9697 16.1516C21.9404 16.1605 21.9114 16.1694 21.8823 16.1788C21.8519 16.1889 21.8207 16.1966 21.7907 16.2073C21.7876 16.1821 21.7791 16.1591 21.775 16.1343C21.7672 16.0874 21.7569 16.0421 21.7454 15.9965C21.7307 15.9395 21.7136 15.8839 21.6934 15.8293C21.6772 15.7854 21.6597 15.743 21.6399 15.7009C21.6152 15.6486 21.5876 15.5988 21.5577 15.5497C21.5338 15.5104 21.5099 15.4719 21.4831 15.4348C21.4493 15.3882 21.4121 15.345 21.3737 15.3021C21.3435 15.2683 21.3142 15.2346 21.2812 15.2035C21.2386 15.1631 21.1927 15.1274 21.1461 15.0918C21.1111 15.065 21.0775 15.037 21.0404 15.0129C20.9887 14.9795 20.9335 14.9523 20.8783 14.9247C20.8408 14.906 20.8054 14.8848 20.7665 14.8689C20.7026 14.8428 20.635 14.825 20.5673 14.8069C20.5329 14.7976 20.5003 14.7845 20.4651 14.7775C20.3603 14.7573 20.2525 14.7453 20.1419 14.7453C20.0313 14.7453 19.9238 14.7573 19.8191 14.7779C19.7839 14.7849 19.7513 14.7981 19.7167 14.8073C19.6492 14.8252 19.5818 14.8432 19.5177 14.8691C19.4788 14.885 19.4432 14.9062 19.4057 14.9249C19.3505 14.9526 19.2953 14.9795 19.2438 15.0129C19.2067 15.037 19.1731 15.065 19.1381 15.0918C19.0915 15.1274 19.0454 15.1631 19.003 15.2035C18.9702 15.2346 18.9408 15.2683 18.9105 15.3021C18.8722 15.345 18.8349 15.3882 18.8011 15.4348C18.7741 15.4719 18.7502 15.5106 18.7263 15.5499C18.6967 15.599 18.6691 15.6486 18.6443 15.7007C18.6243 15.7427 18.607 15.7854 18.5906 15.8293C18.5702 15.8839 18.5533 15.9393 18.5387 15.9963C18.5271 16.0419 18.5168 16.0872 18.509 16.1341C18.5049 16.1589 18.4962 16.1819 18.4933 16.2071C18.4655 16.1972 18.4367 16.19 18.4087 16.1807C18.3753 16.1696 18.3415 16.1595 18.3079 16.1494C18.2457 16.1306 18.1831 16.1131 18.1199 16.0979C18.0991 16.0929 18.0787 16.0868 18.0577 16.082C18.0391 16.0779 18.02 16.0756 18.0012 16.0717C17.932 16.0573 17.8624 16.0447 17.7921 16.0342C17.7592 16.0293 17.7262 16.0245 17.693 16.0204C17.6694 16.0175 17.6457 16.0138 17.6218 16.0114C17.576 16.0066 17.5301 16.0042 17.484 16.0011C17.4399 15.9982 17.3958 15.9959 17.3515 15.9945C17.3229 15.9936 17.2945 15.9906 17.2656 15.9901C17.3892 15.1285 17.8943 14.3626 18.6493 13.9144L21.6348 13.915ZM17.3686 13.915C16.838 14.506 16.5045 15.2583 16.4293 16.0779C16.4127 16.0816 16.3968 16.0872 16.3803 16.0911C16.3406 16.1006 16.3016 16.1121 16.2623 16.1228C16.1723 16.1471 16.0837 16.1743 15.9961 16.2052C15.9549 16.2199 15.9139 16.2345 15.8732 16.2504C15.7803 16.2868 15.6896 16.3274 15.6 16.3711C15.5714 16.3851 15.5419 16.3972 15.5135 16.4121C15.3986 16.4718 15.2869 16.5375 15.1785 16.609C15.1728 16.6131 15.1664 16.616 15.1606 16.6199V13.915L17.3686 13.915ZM8.97755 10.3631C9.07272 10.5534 9.14132 10.691 9.14132 11.0084C9.14132 11.3259 9.07272 11.4633 8.97755 11.6534C8.90092 11.8068 8.8144 11.9922 8.76538 12.2546H7.95891C7.98631 12.1764 8.01989 12.1045 8.05965 12.0247C8.1715 11.8004 8.31096 11.5215 8.31096 11.0084C8.31096 10.4951 8.1715 10.2162 8.05965 9.99184C7.96427 9.8017 7.89588 9.66431 7.89588 9.3469C7.89588 9.03049 7.96448 8.8933 8.05965 8.70359C8.16347 8.49554 8.28665 8.23228 8.30437 7.78628L9.1343 7.80935C9.11803 8.03924 9.05911 8.16984 8.97754 8.33196C8.86548 8.55567 8.72602 8.83417 8.72602 9.34688C8.72602 9.86001 8.86549 10.1389 8.97755 10.3631ZM5.19755 6.84652L19.3119 6.45451V7.26119L5.19755 6.86918V6.84652ZM6.39911 9.99186C6.30394 9.80173 6.23534 9.66433 6.23534 9.34692C6.23534 9.03051 6.30394 8.89332 6.39911 8.70361C6.50684 8.48815 6.63703 8.21685 6.64691 7.74015L7.47627 7.76323C7.46535 8.0234 7.40355 8.15915 7.31683 8.33176C7.20498 8.55567 7.06552 8.83417 7.06552 9.34689C7.06552 9.86002 7.20498 10.139 7.31683 10.3631C7.41221 10.5534 7.4808 10.691 7.4808 11.0084C7.4808 11.3259 7.41221 11.4633 7.31704 11.6534C7.24041 11.8069 7.15389 11.9922 7.10487 12.2547H6.2984C6.3258 12.1764 6.35937 12.1045 6.39913 12.0248C6.51099 11.8004 6.65044 11.5215 6.65044 11.0084C6.65044 10.4949 6.51096 10.216 6.39911 9.99186ZM11.0092 19.7272V20.5573H5.19739V19.7272H11.0092ZM10.5942 18.8968H5.61262C3.5525 18.8968 1.87649 17.2206 1.87649 15.1607V13.0851H14.3302V15.1607C14.3302 17.2208 12.6543 18.8968 10.5941 18.8968H10.5942ZM16.406 19.7272C16.406 19.2692 16.7787 18.897 17.2362 18.897C17.314 18.897 17.3979 18.9098 17.4778 18.9333C17.7065 19.0023 17.8937 19.166 17.9907 19.3817C18.041 19.4942 18.0665 19.6104 18.0665 19.7272C18.0665 20.1851 17.6939 20.5573 17.2364 20.5573C16.7787 20.5573 16.406 20.1851 16.406 19.7272ZM18.7604 20.3834C18.7624 20.3789 18.7651 20.3748 18.7669 20.37C18.804 20.2823 18.8308 20.1898 18.8524 20.095C18.8578 20.0718 18.8623 20.0487 18.8666 20.025C18.8844 19.9282 18.8969 19.8293 18.8969 19.7271C18.8969 19.4929 18.8471 19.2628 18.7486 19.042C18.5523 18.6059 18.1765 18.2763 17.7158 18.1375C17.5586 18.0912 17.3928 18.0667 17.2364 18.0667C16.3206 18.0667 15.5759 18.8115 15.5759 19.7272C15.5759 19.8293 15.5883 19.928 15.606 20.0252C15.6103 20.0489 15.6148 20.0722 15.6202 20.0955C15.6418 20.19 15.6686 20.2825 15.7057 20.3703C15.7077 20.375 15.7106 20.3795 15.7127 20.3843C15.7384 20.4438 15.7667 20.5019 15.7988 20.5575L15.1608 20.5573V17.6979C15.1688 17.6896 15.1767 17.6812 15.1847 17.6732C15.2854 17.5722 15.393 17.4795 15.5063 17.3953C15.5242 17.3819 15.5425 17.3691 15.5609 17.3561C15.6768 17.274 15.798 17.1998 15.9244 17.1355C15.9419 17.1267 15.9601 17.1188 15.9778 17.1102C16.1086 17.0472 16.2433 16.9922 16.3826 16.9493C16.3953 16.9454 16.4083 16.9427 16.4211 16.939C16.5678 16.896 16.7179 16.8624 16.8714 16.843C17.1044 16.815 17.3398 16.8251 17.573 16.8525C18.0029 16.9034 18.4234 17.0379 18.7904 17.274C19.0484 17.4334 19.2733 17.6303 19.4684 17.8703C19.5907 18.0106 19.6908 18.1565 19.7808 18.3283C20.0138 18.7429 20.1391 19.219 20.1422 19.7271C20.1422 19.8522 20.1312 19.9764 20.1152 20.1002C20.1113 20.1301 20.1071 20.1599 20.1022 20.1896C20.0822 20.313 20.0573 20.4358 20.0214 20.5569C20.0214 20.5571 20.0212 20.5573 20.0212 20.5575H18.6738C18.7064 20.5015 18.7346 20.4432 18.7604 20.3834ZM22.2179 19.7272C22.2179 19.6104 22.2435 19.4942 22.2933 19.3825C22.391 19.1648 22.5751 19.0031 22.798 18.9388C22.8118 18.9347 22.8256 18.93 22.839 18.9242C23.3931 18.7843 23.8785 19.2025 23.8785 19.7272C23.8785 20.1851 23.5058 20.5573 23.0483 20.5573C22.5904 20.5573 22.2179 20.1851 22.2179 19.7272ZM24.4857 20.5573C24.5181 20.5015 24.5463 20.4432 24.5722 20.3834C24.5743 20.3789 24.577 20.3748 24.5788 20.37C24.6159 20.2823 24.6427 20.1898 24.6643 20.095C24.6697 20.0718 24.6742 20.0487 24.6785 20.025C24.6963 19.9282 24.7086 19.8293 24.7086 19.7271C24.7086 18.8115 23.9639 18.0666 23.0481 18.0666C22.8916 18.0666 22.7257 18.0912 22.569 18.1375C22.5531 18.1423 22.5372 18.148 22.522 18.155C22.0849 18.2953 21.7275 18.6164 21.5357 19.0431C21.4375 19.2627 21.3876 19.493 21.3876 19.7272C21.3876 19.8294 21.4 19.928 21.4177 20.0253C21.422 20.049 21.4265 20.0722 21.4319 20.0955C21.4535 20.1901 21.4803 20.2825 21.5174 20.3703C21.5194 20.375 21.5223 20.3796 21.5244 20.3843C21.5501 20.4438 21.5784 20.5019 21.6105 20.5575H20.8788C20.8823 20.5423 20.8833 20.5262 20.8866 20.511C20.9097 20.4035 20.9272 20.2953 20.9408 20.1866C20.9435 20.1655 20.9476 20.1449 20.9499 20.1237C20.9639 19.9921 20.9725 19.8601 20.9725 19.7272V19.7023V19.6992C20.9715 19.5523 20.9602 19.4063 20.942 19.2616C20.9359 19.212 20.9249 19.1636 20.9167 19.1144C20.901 19.0204 20.8846 18.9271 20.8617 18.8348C20.8473 18.7763 20.8294 18.7197 20.8123 18.6622C20.7882 18.5817 20.7628 18.5017 20.7334 18.4233C20.7113 18.3643 20.6872 18.3069 20.6621 18.2494C20.6462 18.2131 20.6341 18.1754 20.6172 18.1398C20.6221 18.1322 20.6262 18.1239 20.6314 18.1163C20.6885 18.03 20.7513 17.9456 20.8261 17.8597C21.0117 17.6308 21.2368 17.4341 21.5007 17.2705C22.0095 16.9436 22.6353 16.8023 23.2341 16.8371C23.2937 16.8406 23.3534 16.8363 23.4125 16.8433C23.5662 16.8626 23.7166 16.8962 23.8636 16.9393C23.876 16.943 23.889 16.9457 23.9013 16.9494C24.0412 16.9924 24.1763 17.0474 24.3076 17.1107C24.3251 17.1191 24.3428 17.1267 24.3599 17.1354C24.4866 17.1996 24.6081 17.274 24.7243 17.3564C24.7424 17.3692 24.7605 17.3819 24.7785 17.3953C24.892 17.4796 24.9995 17.5725 25.1004 17.6734C25.108 17.6813 25.1157 17.6897 25.1237 17.6979V20.5574L24.4857 20.5573Z" fill="#01C3D0"/>
</svg>
