<svg width="27" height="27" viewBox="0 0 27 27" fill="none" xmlns="http://www.w3.org/2000/svg">
<path d="M14.0205 15.8671V15.0993L14.589 15.6678C14.6395 15.7185 14.7085 15.7449 14.775 15.7449C14.844 15.7449 14.9133 15.7185 14.9637 15.6678C15.0673 15.5615 15.0673 15.3943 14.9637 15.2907L14.3979 14.7248H15.1656C15.3117 14.7248 15.4314 14.6051 15.4314 14.4591C15.4314 14.313 15.3119 14.1933 15.1656 14.1933H13.8664L12.3919 12.7188H14.4776L15.3943 13.6353C15.4474 13.6885 15.5138 13.715 15.583 13.715C15.652 13.715 15.7185 13.6885 15.7717 13.6353C15.8753 13.5317 15.8753 13.3642 15.7717 13.2608L15.2297 12.7189H16.0294C16.1754 12.7189 16.2951 12.5992 16.2951 12.4531C16.2951 12.3044 16.1757 12.1874 16.0294 12.1874H15.2268L15.7715 11.6428C15.8778 11.5391 15.8778 11.3717 15.7741 11.2656C15.6705 11.162 15.5006 11.162 15.3968 11.2656L14.4748 12.1876H12.3893L13.8665 10.7104H15.1657C15.3117 10.7104 15.4314 10.5936 15.4314 10.4447C15.4314 10.2984 15.3119 10.1789 15.1657 10.1789H14.3978L14.9636 9.61288C15.0672 9.50927 15.0672 9.342 14.9636 9.23838C14.86 9.13476 14.6925 9.13477 14.5889 9.23838L14.0204 9.80691V9.0363C14.0204 8.89025 13.9036 8.77057 13.7546 8.77057C13.6086 8.77057 13.4889 8.89025 13.4889 9.0363V10.3382L12.0144 11.8127V9.72454L12.9338 8.80538C13.0374 8.70177 13.0374 8.53429 12.9338 8.43067C12.8302 8.32706 12.6627 8.32706 12.5591 8.43067L12.0144 8.97531V8.17296C12.0144 8.02423 11.895 7.90723 11.7487 7.90723C11.6026 7.90723 11.483 8.02402 11.483 8.17296V8.97262L10.941 8.43067C10.8374 8.32706 10.6675 8.32706 10.5636 8.43067C10.46 8.53429 10.46 8.70176 10.5636 8.80538L11.4828 9.72185V11.81L10.0083 10.3355V9.0363C10.0083 8.89025 9.88881 8.77057 9.74255 8.77057C9.59651 8.77057 9.47682 8.89025 9.47682 9.0363V9.80422L8.91098 9.23838C8.80737 9.13477 8.63742 9.13477 8.53381 9.23838C8.4302 9.34199 8.4302 9.50947 8.53381 9.61288L9.09965 10.1789H8.33173C8.18568 10.1789 8.066 10.2984 8.066 10.4447C8.066 10.5934 8.18547 10.7104 8.33173 10.7104H9.63095L11.1089 12.1874H9.02324L8.10387 11.2682C8.00025 11.1646 7.83031 11.1646 7.72669 11.2682C7.62308 11.3718 7.62308 11.5391 7.72669 11.6427L8.27133 12.1874H7.46898C7.32293 12.1874 7.20325 12.3042 7.20325 12.4531C7.20325 12.5991 7.32272 12.7188 7.46898 12.7188H8.26864L7.72669 13.2608C7.62308 13.3644 7.62308 13.5317 7.72669 13.6353C7.77984 13.6884 7.84617 13.715 7.91538 13.715C7.98439 13.715 8.05092 13.6884 8.10407 13.6353L9.02075 12.7188H11.1065L9.63173 14.1933H8.33273C8.18668 14.1933 8.06699 14.313 8.06699 14.459C8.06699 14.6051 8.18647 14.7248 8.33273 14.7248H9.10049L8.53465 15.2906C8.43103 15.3942 8.43103 15.5617 8.53465 15.6678C8.58779 15.7185 8.65412 15.7448 8.72334 15.7448C8.79234 15.7448 8.85888 15.7185 8.91202 15.6678L9.47786 15.0993L9.48054 15.867C9.48054 16.0133 9.59755 16.1328 9.74628 16.1328C9.89232 16.1328 10.012 16.0133 10.012 15.867L10.0093 14.5705L11.4838 13.096V15.1817L10.5647 16.0982C10.4611 16.2018 10.4611 16.3692 10.5647 16.4729C10.6178 16.526 10.6868 16.5526 10.7534 16.5526C10.8224 16.5526 10.8889 16.526 10.9421 16.4729L11.484 15.9309V16.7333C11.484 16.8793 11.6035 16.999 11.7497 16.999C11.8958 16.999 12.0155 16.8793 12.0155 16.7333V15.9282L12.5601 16.4729C12.6106 16.526 12.6796 16.5526 12.7488 16.5526C12.8151 16.5526 12.8843 16.526 12.9348 16.4729C13.0384 16.3692 13.0384 16.2018 12.9348 16.0982L12.0154 15.179V13.0933L13.4899 14.568V15.867C13.4899 16.0133 13.6094 16.1328 13.7557 16.1328C13.9038 16.1328 14.0206 16.0133 14.0206 15.867L14.0205 15.8671Z" fill="#01C3D0"/>
<path d="M22.4137 19.4088C22.4988 19.2308 22.5439 19.0421 22.5519 18.8507C22.5785 18.1761 22.1294 17.5383 21.2873 17.0549C20.5913 16.6511 19.6826 16.3907 18.7023 16.3057C18.6172 12.1345 19.1858 7.49587 19.4142 5.62802C19.4301 5.50051 19.4435 5.38639 19.4567 5.28277C19.8392 5.16062 20.1181 4.80466 20.1181 4.38218C20.1181 3.85895 19.6931 3.4338 19.1697 3.4338L4.13463 3.43359C3.61388 3.43359 3.18868 3.85877 3.18868 4.38197C3.18868 4.80446 3.4676 5.16307 3.85013 5.28257C3.86352 5.38618 3.8767 5.50319 3.89277 5.6307C4.20361 8.1706 5.14152 15.8327 4.21433 20.4849H4.13461C3.61386 20.4849 3.18866 20.9099 3.18866 21.4333C3.18866 21.954 3.61383 22.3792 4.13461 22.3792H10.835C11.5311 23.1099 12.8091 23.6651 14.3448 23.822C14.6132 23.8513 14.8841 23.8644 15.1471 23.8644C15.9734 23.8644 16.7518 23.7291 17.3922 23.4712C17.8491 23.2854 18.2131 23.0487 18.4655 22.7725C18.9119 23.0833 19.4219 23.3571 19.9746 23.5748C20.862 23.9281 21.736 24.098 22.4986 24.098C23.673 24.098 24.5816 23.6943 24.8817 22.937C25.3277 21.8133 24.265 20.344 22.4133 19.409L22.4137 19.4088ZM18.718 16.8396C19.5974 16.9245 20.405 17.1585 21.024 17.5145C21.6696 17.8838 22.0205 18.338 22.0205 18.7949V18.8295C22.0151 18.9517 21.9858 19.0711 21.93 19.1855C21.8691 19.1589 21.8079 19.1323 21.7442 19.1084C20.7 18.694 19.6746 18.5318 18.8272 18.6009C18.6412 18.6142 18.4658 18.6408 18.2984 18.6806C17.666 18.8188 17.1772 19.1162 16.9248 19.56C16.3216 19.3025 15.6069 19.1216 14.8284 19.0421C14.7328 19.0314 14.6371 19.0236 14.5442 19.0182C14.462 18.8614 14.4247 18.6993 14.43 18.5345C14.4673 17.5676 16.0798 16.8077 18.0114 16.8077C18.0673 16.8077 18.1258 16.8077 18.1841 16.8104C18.2213 16.8104 18.2611 16.8104 18.2984 16.813C18.4391 16.8182 18.5799 16.8262 18.718 16.8396ZM3.72031 4.38164C3.72031 4.15052 3.90632 3.9645 4.13477 3.9645H19.1699C19.401 3.9645 19.587 4.15051 19.587 4.38164C19.587 4.61029 19.401 4.7961 19.1699 4.7961H4.13477C3.90632 4.7961 3.72031 4.6103 3.72031 4.38164ZM4.13477 21.8478C3.90632 21.8478 3.72031 21.6618 3.72031 21.4333C3.72031 21.2022 3.90632 21.0162 4.13477 21.0162H10.2799C10.2533 21.3005 10.3145 21.582 10.4499 21.8478L4.13477 21.8478ZM10.4313 20.4847H4.75651C5.66512 15.737 4.72993 8.10901 4.41909 5.56669C4.40838 5.48182 4.40055 5.4021 4.38984 5.32774H18.9171C18.9064 5.39943 18.8986 5.47935 18.8879 5.56154C18.6594 7.4373 18.0909 12.0705 18.1706 16.2793C15.8113 16.2288 13.9516 17.1933 13.8984 18.5135C13.8931 18.6809 13.9143 18.8431 13.9648 18.9996C12.2616 19.013 10.8829 19.592 10.4311 20.4848L10.4313 20.4847ZM18.3646 21.8131C18.3646 21.8239 18.3619 21.837 18.3593 21.8478C18.3539 21.9009 18.3407 21.9514 18.3246 21.9992C18.2981 22.0842 18.2583 22.1664 18.2052 22.2464C18.1759 22.2915 18.144 22.3366 18.1069 22.3792C18.0857 22.4031 18.0618 22.4297 18.0379 22.4536C17.8387 22.6557 17.5544 22.8336 17.1931 22.9797C16.428 23.2879 15.4343 23.3995 14.3982 23.2932C13.2982 23.1816 12.3152 22.8336 11.6564 22.3792C11.4146 22.2144 11.2181 22.0338 11.0745 21.8478C10.878 21.5901 10.7822 21.319 10.8088 21.0481C10.8088 21.0374 10.8114 21.0269 10.8141 21.0164C10.838 20.825 10.9284 20.647 11.0691 20.4849C11.5606 19.9083 12.7057 19.5339 14.0396 19.5339C14.1086 19.5339 14.1778 19.5339 14.2468 19.5365C14.3663 19.5392 14.4886 19.5472 14.6108 19.5578H14.6134C14.6666 19.5604 14.7197 19.5658 14.7756 19.5711C14.8711 19.5816 14.9694 19.5924 15.0625 19.6082C15.6842 19.6933 16.2581 19.8554 16.7496 20.0678C16.8373 20.1051 16.9195 20.1422 17.0019 20.1846C17.095 20.2299 17.1826 20.275 17.265 20.3228C17.3554 20.376 17.4378 20.4291 17.5173 20.4849C17.5278 20.4903 17.5359 20.4981 17.5439 20.5035C17.6821 20.599 17.8043 20.7002 17.9106 20.8036C17.9796 20.8753 18.0434 20.9445 18.0993 21.0162C18.1151 21.0374 18.1312 21.0586 18.1471 21.0825C18.3114 21.319 18.3912 21.566 18.3646 21.8131ZM24.3874 22.7403C24.0154 23.6836 22.084 23.8403 20.1684 23.0804C19.6796 22.8866 19.2252 22.6472 18.8268 22.379C18.8056 22.3656 18.7844 22.3497 18.763 22.3364C18.8347 22.1876 18.8773 22.0309 18.8932 21.8688C18.8932 21.8607 18.8958 21.8554 18.8932 21.8475C18.9171 21.5872 18.8666 21.3295 18.7549 21.0849C18.7442 21.061 18.7337 21.0372 18.723 21.0159C18.6884 20.9496 18.6486 20.8831 18.6062 20.8192C18.5477 20.7292 18.4787 20.6414 18.4015 20.5566C18.3829 20.5325 18.3617 20.5088 18.3376 20.4849C18.0933 20.2272 17.7771 19.9934 17.4024 19.7888C17.5804 19.5097 17.9151 19.3159 18.3535 19.2122C18.5156 19.1725 18.6909 19.1459 18.8796 19.1325C18.9859 19.1247 19.0948 19.1193 19.2063 19.1193C19.9077 19.1193 20.7286 19.2761 21.547 19.6003C21.5656 19.6082 21.5816 19.6135 21.6002 19.6216C21.6906 19.6586 21.7781 19.6959 21.8659 19.7357C21.951 19.773 22.0334 19.8127 22.1156 19.8554C23.7099 20.6495 24.7249 21.8929 24.3875 22.7403L24.3874 22.7403Z" fill="#01C3D0"/>
</svg>
