<svg width="27" height="27" viewBox="0 0 27 27" fill="none" xmlns="http://www.w3.org/2000/svg">
<path d="M23.0476 13.5C23.0472 10.1581 22.6372 6.82907 21.827 3.58697L21.8021 3.48727V1.04624C21.8017 0.890103 21.7135 0.74714 21.5739 0.676898C21.4332 0.605622 21.2645 0.620045 21.138 0.714183L19.764 1.74372L18.7759 0.751677C18.698 0.672987 18.5919 0.628906 18.4811 0.628906C18.3705 0.628906 18.2644 0.672989 18.1865 0.751677L17.2359 1.70643L16.2852 0.751677C16.2072 0.672987 16.1011 0.628906 15.9904 0.628906C15.8798 0.628906 15.7737 0.672989 15.6957 0.751677L14.745 1.70643L13.7944 0.751677C13.7165 0.672987 13.6104 0.628906 13.4998 0.628906C13.389 0.628906 13.2829 0.672989 13.205 0.751677L12.2544 1.70643L11.3038 0.751677C11.2259 0.672987 11.1198 0.628906 11.009 0.628906C10.8984 0.628906 10.7923 0.672989 10.7142 0.751677L9.76357 1.70643L8.81293 0.751677H8.81313C8.73506 0.672987 8.62897 0.628906 8.51836 0.628906C8.40753 0.628906 8.30145 0.672989 8.22358 0.751677L7.23566 1.74372L5.86145 0.714183C5.73992 0.628284 5.58151 0.613866 5.44638 0.676898C5.29868 0.741171 5.20166 0.885362 5.19733 1.04624V3.48727L5.1724 3.58697C3.54507 10.0954 3.54507 16.9045 5.1724 23.4135L5.19733 23.5132V25.954C5.19733 26.1112 5.28611 26.255 5.42681 26.3252C5.5675 26.3957 5.7358 26.3804 5.86145 26.2861L7.23545 25.2565L8.22337 26.2486L8.22358 26.2488C8.30145 26.3273 8.40753 26.3716 8.51835 26.3716C8.62897 26.3716 8.73506 26.3273 8.81313 26.2488L9.76356 25.294L10.7142 26.2488C10.7923 26.3273 10.8984 26.3716 11.009 26.3716C11.1198 26.3716 11.2259 26.3273 11.3038 26.2488L12.2544 25.294L13.205 26.2488C13.2829 26.3273 13.389 26.3716 13.4998 26.3716C13.6104 26.3716 13.7165 26.3273 13.7944 26.2488L14.745 25.294L15.6957 26.2488C15.7737 26.3273 15.8798 26.3716 15.9904 26.3716C16.1011 26.3716 16.2071 26.3273 16.2852 26.2488L17.2359 25.294L18.1865 26.2488C18.2644 26.3273 18.3705 26.3716 18.4811 26.3716C18.5919 26.3716 18.698 26.3273 18.7758 26.2488L19.7638 25.2568L21.138 26.2861C21.2645 26.3803 21.4332 26.3949 21.5739 26.3234C21.7135 26.2532 21.8017 26.1104 21.8021 25.9541V23.513L21.827 23.4133V23.4136C22.6372 20.1712 23.0471 16.8423 23.0476 13.5005L23.0476 13.5ZM21.0591 23.0475H5.94017C5.80318 22.4955 5.68288 21.9432 5.57061 21.387H21.4284C21.3163 21.9434 21.1958 22.4955 21.0588 23.0475H21.0591ZM5.94017 3.95189H21.0591C21.1961 4.50396 21.3164 5.0562 21.4287 5.61239H5.57091C5.68297 5.0562 5.80327 4.50391 5.94026 3.95189H5.94017ZM6.0273 1.87631L7.02372 2.62346C7.18892 2.74849 7.42087 2.73263 7.56751 2.58617L8.51816 1.63141L9.4688 2.58617C9.54667 2.66486 9.65275 2.70894 9.76337 2.70894C9.87419 2.70894 9.98028 2.66486 10.0581 2.58617L11.0088 1.63141L11.9594 2.58617C12.0373 2.66486 12.1436 2.70894 12.2542 2.70894C12.3648 2.70894 12.4709 2.66486 12.549 2.58617L13.4996 1.63141L14.4503 2.58617C14.5281 2.66486 14.6342 2.70894 14.7448 2.70894C14.8557 2.70894 14.9617 2.66486 15.0396 2.58617L15.9902 1.63141L16.9409 2.58617C17.0188 2.66486 17.1248 2.70894 17.2357 2.70894C17.3463 2.70894 17.4524 2.66486 17.5304 2.58617L18.4809 1.63141L19.4315 2.58617C19.5782 2.73263 19.8101 2.74849 19.9753 2.62346L20.9717 1.87631V3.12174H6.02733L6.0273 1.87631ZM5.41305 6.44279H21.603C22.0169 8.77218 22.2225 11.1339 22.2175 13.4997C22.2171 15.8662 22.0059 18.2279 21.5863 20.5566H5.39633C4.55506 15.8894 4.55506 11.1093 5.39633 6.44227L5.41305 6.44279ZM20.9718 25.1234L19.9754 24.3763C19.8102 24.2512 19.5782 24.2673 19.4316 24.4136L18.4809 25.3683L17.5303 24.4136H17.5305C17.4524 24.3351 17.3463 24.2908 17.2357 24.2908C17.1249 24.2908 17.0188 24.3351 16.941 24.4136L15.9903 25.3683L15.0397 24.4136C14.9618 24.3351 14.8557 24.2908 14.7449 24.2908C14.6343 24.2908 14.5282 24.3351 14.4503 24.4136L13.4997 25.3683L12.549 24.4136C12.471 24.3351 12.3649 24.2908 12.2543 24.2908C12.1437 24.2908 12.0374 24.3351 11.9595 24.4136L11.0089 25.3683L10.0582 24.4136C9.98034 24.3351 9.87426 24.2908 9.76344 24.2908C9.65281 24.2908 9.54673 24.3351 9.46887 24.4136L8.51822 25.3683L7.56758 24.4136C7.42092 24.2673 7.18897 24.2512 7.02379 24.3763L6.02737 25.1234V23.8782H20.9718L20.9718 25.1234Z" fill="#01C3D0"/>
<path d="M13.0845 18.0664V19.3118H13.9146L13.9148 18.0664C14.58 18.0555 15.2141 17.7834 15.68 17.3088C16.1462 16.8342 16.4068 16.1952 16.4055 15.5301V15.1607C16.4055 15.0505 16.3619 14.945 16.284 14.8672C16.2061 14.7893 16.1007 14.7454 15.9905 14.7454H15.6252C14.9908 14.7423 14.379 14.9813 13.9148 15.4139V14.7454C14.58 14.7345 15.2141 14.4624 15.68 13.9878C16.1462 13.5132 16.4068 12.8742 16.4055 12.2091V11.8397C16.4055 11.7295 16.3619 11.624 16.284 11.5462C16.2061 11.4683 16.1007 11.4244 15.9905 11.4244H15.6252C14.9908 11.4213 14.379 11.6605 13.9149 12.0929V11.5948L14.0352 11.4745V11.4743C14.4896 11.0211 14.7448 10.4058 14.7448 9.76391C14.7448 9.12223 14.4896 8.50693 14.0352 8.05373L13.7943 7.80881C13.7165 7.73012 13.6104 7.68604 13.4998 7.68604C13.3889 7.68604 13.2829 7.73012 13.205 7.80881L12.9642 8.05373C12.51 8.50692 12.2545 9.12223 12.2545 9.76391C12.2545 10.4058 12.51 11.0211 12.9642 11.4743L13.0845 11.5946V12.0929C12.6204 11.6605 12.0086 11.4214 11.3743 11.4244H11.0089C10.7796 11.4244 10.5938 11.6104 10.5938 11.8397V12.2049C10.5915 12.8709 10.8517 13.511 11.3179 13.9864C11.784 14.4618 12.4187 14.7346 13.0845 14.7455V15.418C12.621 14.984 12.0091 14.7434 11.3743 14.7455H11.0088C10.7796 14.7455 10.5938 14.9315 10.5938 15.1608V15.526C10.5915 16.192 10.8517 16.832 11.3178 17.3074C11.784 17.7828 12.4186 18.0556 13.0844 18.0665L13.0845 18.0664ZM14.4171 16.0821C14.7248 15.7723 15.1389 15.5912 15.5754 15.5757C15.5635 16.012 15.3834 16.4269 15.073 16.7338C14.7646 17.0422 14.3508 17.2218 13.9149 17.2363C13.9268 16.7998 14.1067 16.3849 14.4171 16.0779L14.4171 16.0821ZM14.4171 12.761C14.7234 12.4491 15.1385 12.2677 15.5754 12.2547C15.5635 12.691 15.3834 13.1061 15.073 13.4128C14.7646 13.7212 14.3508 13.9008 13.9149 13.9152C13.9268 13.4787 14.1067 13.0638 14.4171 12.7569L14.4171 12.761ZM13.4998 8.69283C13.7665 8.98575 13.9146 9.36767 13.9146 9.76381C13.9146 10.1601 13.7665 10.5421 13.4998 10.835C13.2328 10.542 13.0849 10.1601 13.0849 9.76381C13.0849 9.36769 13.2328 8.98577 13.4998 8.69283ZM11.9264 13.4128C11.616 13.106 11.4359 12.6909 11.424 12.2547C11.8599 12.2691 12.2739 12.4487 12.5821 12.7571C12.8905 13.0655 13.0701 13.4793 13.0845 13.9152C12.6488 13.9008 12.2348 13.7211 11.9264 13.4128ZM12.5823 16.0779C12.8927 16.3848 13.0728 16.7997 13.0845 17.2362C12.6488 17.2218 12.2348 17.0422 11.9264 16.7338C11.616 16.4269 11.4359 16.012 11.424 15.5757C11.8599 15.5901 12.2739 15.7697 12.5823 16.0779Z" fill="#01C3D0"/>
<path d="M20.3123 18.8966H20.5572C20.6672 18.8966 20.7729 18.8528 20.8507 18.7749C20.9286 18.6972 20.9723 18.5916 20.9723 18.4814V18.2364C20.9733 17.7507 20.7809 17.2843 20.4373 16.9408C20.0937 16.5974 19.6273 16.4048 19.1416 16.4058H18.8967C18.6674 16.4058 18.4814 16.5918 18.4814 16.821V17.066C18.4804 17.5517 18.673 18.0181 19.0165 18.3617C19.3599 18.705 19.8263 18.8976 20.3123 18.8966ZM19.8473 17.5309C20.0002 17.6733 20.1034 17.8609 20.1419 18.0663C19.9347 18.0307 19.7437 17.9318 19.595 17.7831C19.4463 17.6345 19.3474 17.4434 19.3118 17.2361C19.5171 17.2747 19.7048 17.3781 19.8473 17.5309Z" fill="#01C3D0"/>
<path d="M15.9907 19.727C15.9907 19.8372 16.0343 19.9426 16.1122 20.0205C16.1901 20.0984 16.2957 20.142 16.4057 20.142H16.6507C17.1366 20.1433 17.603 19.9507 17.9464 19.6071C18.2899 19.2637 18.4826 18.7973 18.4813 18.3114V18.0665C18.4813 17.9565 18.4377 17.8508 18.3598 17.7729C18.2819 17.695 18.1765 17.6514 18.0663 17.6514H17.8213C17.3356 17.6503 16.8692 17.8427 16.5257 18.1864C16.1821 18.53 15.9897 18.9963 15.9907 19.482V19.727ZM17.1156 18.7763C17.2581 18.6235 17.4458 18.5203 17.6512 18.4816C17.6155 18.689 17.5166 18.8799 17.3679 19.0287C17.2192 19.1774 17.0282 19.2763 16.821 19.3119C16.8595 19.1065 16.9627 18.9189 17.1156 18.7763Z" fill="#01C3D0"/>
<path d="M6.44312 18.8966H6.68805C7.17378 18.8977 7.64017 18.7051 7.98373 18.3617C8.32733 18.0181 8.51972 17.5517 8.51872 17.066V16.821C8.51872 16.7108 8.47485 16.6052 8.39719 16.5275C8.31932 16.4496 8.21364 16.4058 8.10365 16.4058H7.85872C7.37278 16.4047 6.90639 16.5973 6.56283 16.9408C6.21944 17.2844 6.02683 17.7507 6.02784 18.2364V18.4814C6.02784 18.5916 6.07171 18.6972 6.14958 18.7749C6.22745 18.8528 6.33292 18.8966 6.44312 18.8966ZM7.15298 17.5309C7.29532 17.3781 7.48298 17.2747 7.68834 17.2362C7.65291 17.4434 7.55383 17.6346 7.4051 17.7831C7.25658 17.9318 7.06542 18.0307 6.85819 18.0663C6.89671 17.8609 7.00014 17.6733 7.15298 17.5309Z" fill="#01C3D0"/>
<path d="M8.51874 18.3109C8.51751 18.7968 8.71011 19.2632 9.05373 19.6066C9.39733 19.9502 9.86347 20.1428 10.3494 20.1416H10.5943C10.7043 20.1416 10.81 20.0979 10.8879 20.02C10.9658 19.9422 11.0094 19.8367 11.0094 19.7265V19.4816C11.0107 18.9958 10.8181 18.5294 10.4744 18.1859C10.1308 17.8423 9.66469 17.6499 9.17875 17.6509H8.93382C8.70455 17.6509 8.51874 17.8367 8.51874 18.066V18.3109ZM9.88446 18.7758C10.0373 18.9184 10.1405 19.106 10.1792 19.3114C9.972 19.2757 9.78084 19.1769 9.63211 19.0281C9.48339 18.8794 9.38451 18.6885 9.34887 18.481C9.55425 18.5197 9.74192 18.623 9.88446 18.7758Z" fill="#01C3D0"/>
</svg>
