<svg width="25" height="22" viewBox="0 0 25 22" fill="none" xmlns="http://www.w3.org/2000/svg">
<path d="M24.8785 21.0173C24.1168 19.1134 22.6035 17.692 20.7568 17.026V13.6992C20.7568 13.6022 20.7228 13.508 20.6608 13.4334L16.7521 8.74299L17.8784 7.61664C18.0671 9.69637 19.3377 10.7935 21.5871 10.7935C21.7659 10.7935 21.9244 10.6791 21.9808 10.5096C22.0376 10.3399 21.9791 10.1534 21.836 10.0463C20.9578 9.38735 20.4649 8.5224 20.3633 7.47241H20.757C21.6728 7.47241 22.4175 6.72753 22.4175 5.81191C22.4175 4.89628 21.6728 4.15141 20.757 4.15141H13.2845V3.73633C13.2845 3.61026 13.2275 3.49079 13.1288 3.4123L11.0703 1.76557L9.42688 0.122153C9.38857 0.0836317 9.34263 0.0533501 9.29154 0.032135C9.24087 0.0111235 9.1871 0 9.13314 0H4.15158C4.09761 0 4.04364 0.0111237 3.99297 0.031929C3.94209 0.0529405 3.89615 0.0834273 3.85763 0.121947L2.21422 1.76536L0.15573 3.4121C0.057264 3.49079 0 3.61006 0 3.73612V16.1899C0 16.4191 0.185599 16.6049 0.415078 16.6049H4.98156V16.6814C4.49933 16.8534 4.15141 17.3099 4.15141 17.8502V20.3408C4.15141 21.0276 4.71008 21.5863 5.39684 21.5863H24.4925C24.6303 21.5863 24.7588 21.5179 24.8363 21.4037C24.9133 21.29 24.9292 21.1452 24.8781 21.0173L24.8785 21.0173ZM17.3307 16.6052C16.6939 14.6348 14.8635 13.2841 12.7675 13.2841H8.71849C8.03173 13.2841 7.47307 13.8428 7.47307 14.5295V16.6051H5.81257V12.0386C5.81257 11.8098 5.99858 11.6236 6.22764 11.6236H11.8069C11.9917 11.6236 12.1751 11.632 12.3574 11.6454C12.387 11.6472 12.4208 11.6505 12.4528 11.6532C12.6186 11.6674 12.7832 11.6868 12.9463 11.7117C12.9805 11.7171 13.0159 11.7233 13.0506 11.7294C13.1925 11.7531 13.333 11.7816 13.4726 11.8133C13.5274 11.8252 13.582 11.8384 13.6362 11.8522C13.7864 11.8899 13.9355 11.9305 14.0824 11.977C14.1005 11.983 14.1184 11.988 14.1366 11.9941C16.1409 12.6459 17.8205 14.1156 18.7137 16.0567C18.7222 16.0755 18.7292 16.0948 18.7376 16.1136C18.8075 16.2687 18.8734 16.4263 18.9331 16.5872C18.9354 16.5931 18.9368 16.5993 18.9391 16.6051L17.3307 16.6052ZM16.4513 16.6052H8.30326V14.5296C8.30326 14.3007 8.48927 14.1145 8.71834 14.1145H12.7673C14.4089 14.1145 15.8554 15.1153 16.4513 16.6052L16.4513 16.6052ZM6.64266 2.31889L5.15413 0.83036H8.13135L6.64266 2.31889ZM19.927 16.7433C19.9002 16.7332 19.8759 16.7242 19.8545 16.7155C19.8229 16.6142 19.784 16.5165 19.749 16.417C19.7226 16.3425 19.6983 16.2671 19.6701 16.1935C19.5994 16.0092 19.5214 15.8285 19.4386 15.6505C19.4312 15.6347 19.4248 15.618 19.4171 15.6021C18.8402 14.3837 17.9813 13.323 16.8805 12.4916C16.739 12.3853 16.5971 12.2836 16.4609 12.1971C16.2761 12.0724 16.0957 11.9633 15.9181 11.8685C15.7859 11.7935 15.6534 11.7229 15.5451 11.6722C15.5292 11.6625 15.5127 11.6534 15.4952 11.6458C15.3386 11.5679 15.1786 11.4946 15.0237 11.432C14.8562 11.3613 14.6844 11.2995 14.5237 11.2464C14.353 11.1836 14.1779 11.1294 14.0028 11.0845V11.0849C13.9923 11.0822 13.9818 11.08 13.9715 11.0783C13.8207 11.0371 13.6715 11.0004 13.5397 10.9763C13.4785 10.9609 13.4221 10.9504 13.3718 10.9421C13.3314 10.9343 13.2892 10.929 13.2482 10.9213C13.2078 10.9141 13.1673 10.9073 13.1267 10.9009C13.0692 10.8915 13.0132 10.8795 12.9555 10.8721C12.9361 10.8676 12.9215 10.8653 12.8972 10.8653C12.8908 10.8645 12.8822 10.8637 12.8725 10.8626C12.7821 10.8501 12.6924 10.8414 12.6111 10.8336C12.5874 10.8309 12.5649 10.8295 12.5421 10.8274C12.5194 10.8253 12.4968 10.8231 12.4741 10.8214C12.4677 10.821 12.4611 10.8202 12.4547 10.8198V9.13313H15.9962L19.9269 13.8497L19.927 16.7433ZM20.4333 9.82827C19.3559 9.53699 18.7981 8.76409 18.7015 7.47252H19.5294C19.6108 8.47674 19.9809 9.24861 20.4333 9.82827ZM21.5875 5.81202C21.5875 6.26994 21.2149 6.64216 20.7574 6.64216H17.8514C17.7412 6.64216 17.6358 6.68604 17.5579 6.7637L16.0189 8.3027H12.4546V5.39677C12.4546 5.16791 12.6406 4.98169 12.8697 4.98169H20.7571C21.2149 4.98169 21.5875 5.3541 21.5875 5.81202ZM12.455 4.22255C12.441 4.2275 12.4284 4.23491 12.4148 4.24047C12.3917 4.24954 12.3697 4.26004 12.3472 4.27055C12.3009 4.29218 12.2566 4.31628 12.2135 4.34326C12.1932 4.35604 12.173 4.36798 12.1534 4.38178C12.1042 4.4166 12.058 4.45512 12.0143 4.49652C12.0053 4.50517 11.995 4.51238 11.9861 4.52145C11.9352 4.57295 11.8895 4.62918 11.8481 4.68872C11.8366 4.7054 11.8273 4.72332 11.8164 4.74063C11.7882 4.78595 11.7624 4.8325 11.74 4.88132C11.7295 4.90398 11.7202 4.92705 11.7111 4.95033C11.6924 4.99895 11.6771 5.0488 11.6646 5.1003C11.659 5.12296 11.6524 5.1452 11.6481 5.16828C11.6339 5.24264 11.6246 5.31845 11.6246 5.39693V10.7938H7.05813L7.05834 3.90824L8.01025 4.86015C8.0912 4.9411 8.19749 4.98168 8.30358 4.98168C8.40987 4.98168 8.51596 4.9411 8.59712 4.86015L10.8251 2.63212L12.4547 3.93587L12.455 4.22255ZM8.30356 3.97948L7.23015 2.90607L9.13397 1.00225L10.2074 2.07587L8.30356 3.97948ZM4.15236 1.00225L6.05618 2.90607L4.98277 3.97948L3.07895 2.07587L4.15236 1.00225ZM0.83131 15.7747V3.93587L2.46091 2.63211L4.68894 4.86014C4.7701 4.9411 4.87639 4.98168 4.98248 4.98168C5.08877 4.98168 5.19485 4.9411 5.27602 4.86014L6.22793 3.90823V10.7938C5.54117 10.7938 4.9825 11.3524 4.9825 12.0392V15.7753L0.83131 15.7747ZM5.39779 17.4352H18.362C19.9731 17.4352 21.4676 18.0474 22.5876 19.0957H4.98272V17.8503C4.98272 17.6217 5.16893 17.4352 5.398 17.4352L5.39779 17.4352ZM5.39779 20.7563C5.16872 20.7563 4.98271 20.5701 4.98271 20.3412V19.9261H23.2483C23.2718 19.9261 23.292 19.9164 23.3144 19.9127C23.5116 20.1774 23.6916 20.4578 23.8472 20.7563L5.39779 20.7563Z" fill="#01C3D0"/>
</svg>
