<svg width="27" height="27" viewBox="0 0 27 27" fill="none" xmlns="http://www.w3.org/2000/svg">
<path d="M20.249 6.72967C20.0568 6.63615 19.825 6.71546 19.7301 6.90724C19.6969 6.9746 18.9143 8.58651 18.8344 10.5661V10.5659C18.8303 10.6691 18.8672 10.7696 18.9372 10.8454C19.0072 10.9212 19.1045 10.9662 19.2077 10.9703H19.2233H19.2231C19.432 10.9705 19.6038 10.8053 19.6118 10.5966C19.685 8.79293 20.4167 7.27555 20.4286 7.25023C20.4739 7.15733 20.4803 7.05042 20.4467 6.95278C20.4129 6.85514 20.3419 6.77479 20.249 6.72967Z" fill="#01C3D0"/>
<path d="M14.3823 6.72919C14.1905 6.82395 14.111 7.05569 14.2043 7.24809C14.2115 7.26374 14.9473 8.78603 15.021 10.5951C15.0291 10.8038 15.2009 10.9688 15.4098 10.9688H15.4254H15.4252C15.5284 10.9646 15.6256 10.9197 15.6957 10.8439C15.7657 10.7681 15.8026 10.6676 15.7983 10.5644C15.7183 8.58479 14.9358 6.97307 14.9026 6.90552L14.9028 6.90573C14.8077 6.71312 14.5747 6.63423 14.3823 6.72919Z" fill="#01C3D0"/>
<path d="M14.9787 19.3376H19.6488C20.0659 19.3376 20.4513 19.1151 20.66 18.7538C20.8685 18.3925 20.8685 17.9475 20.66 17.5862C20.4513 17.2249 20.0659 17.0024 19.6488 17.0024H14.9787C14.5615 17.0024 14.1761 17.2249 13.9674 17.5862C13.759 17.9475 13.759 18.3925 13.9674 18.7538C14.1761 19.1151 14.5615 19.3376 14.9787 19.3376ZM14.9787 17.7809H19.6488C19.8638 17.7809 20.0381 17.9551 20.0381 18.17C20.0381 18.3848 19.8638 18.5591 19.6488 18.5591H14.9787C14.7636 18.5591 14.5896 18.3848 14.5896 18.17C14.5896 17.9551 14.7636 17.7809 14.9787 17.7809Z" fill="#01C3D0"/>
<mask id="mask0_281_2150" style="mask-type:luminance" maskUnits="userSpaceOnUse" x="0" y="4" width="27" height="19">
<path d="M0.215698 4.00781H26.7838V22.9922H0.215698V4.00781Z" fill="white"/>
</mask>
<g mask="url(#mask0_281_2150)">
<path d="M26.3946 12.8514H21.5906C21.9019 10.646 22.7524 5.92788 23.8353 4.67333C23.949 4.54149 23.9614 4.35033 23.8656 4.2049C23.7698 4.05968 23.5891 3.9954 23.4233 4.04793L21.5896 4.62659C20.7302 4.90015 19.8049 4.8849 18.9549 4.58292C17.8937 4.20471 16.7343 4.20471 15.6729 4.58292C14.8229 4.88491 13.8974 4.90015 13.038 4.62659L11.204 4.04793C11.0382 3.99541 10.8576 4.05967 10.7618 4.2049C10.666 4.35033 10.6783 4.54149 10.792 4.67333C11.8749 5.92804 12.7266 10.646 13.0367 12.8514H11.3723V11.6838C11.3723 11.5806 11.3311 11.4815 11.2582 11.4086C11.1853 11.3357 11.0862 11.2947 10.983 11.2947H9.25142C8.94572 9.95795 7.08129 8.95953 4.75602 8.95953C2.20995 8.95953 0.215698 10.1561 0.215698 11.6838V20.2457C0.215698 21.7734 2.2099 22.97 4.75623 22.97H24.3191C24.6973 22.9696 25.0601 22.819 25.3274 22.5514C25.595 22.284 25.7454 21.9213 25.746 21.5431V15.7054H26.3947C26.4979 15.7054 26.597 15.6644 26.6699 15.5913C26.7428 15.5183 26.7838 15.4193 26.7838 15.3161V13.2405C26.7838 13.1373 26.7428 13.0382 26.6699 12.9653C26.597 12.8924 26.4979 12.8514 26.3947 12.8514L26.3946 12.8514ZM4.75612 9.73799C6.79546 9.73799 8.51819 10.6289 8.51819 11.6838C8.51819 12.7386 6.79546 13.6296 4.75612 13.6296C2.71678 13.6296 0.994051 12.7386 0.994051 11.6838C0.994051 10.6289 2.71678 9.73799 4.75612 9.73799ZM0.994051 20.2458V13.2285C1.80363 13.9456 3.17346 14.4084 4.75612 14.4084C6.33879 14.4084 7.70861 13.9455 8.51819 13.2285V22.1923H4.75612C2.71678 22.1923 0.994051 21.3012 0.994051 20.2463V20.2458ZM10.5938 22.1916L9.29644 22.1918V12.0732H10.5938V22.1916ZM11.9534 5.10148L12.8029 5.37031C13.8234 5.69516 14.9221 5.67682 15.9313 5.3184C16.8253 4.99972 17.8019 4.99972 18.6959 5.3184C19.7051 5.67683 20.8041 5.69516 21.8245 5.37031L22.674 5.10148C21.6315 7.32186 20.9793 11.6036 20.8059 12.8513H13.8217C13.6479 11.6032 12.9957 7.3216 11.9531 5.10148H11.9534ZM24.9677 21.543C24.9671 21.901 24.677 22.1911 24.319 22.1917H11.3722V15.7054H24.9676L24.9677 21.543ZM26.0055 14.9269H11.3722V13.6296H26.0055V14.9269Z" fill="#01C3D0"/>
</g>
<path d="M4.75664 12.8513C5.70216 12.8513 6.44308 12.3386 6.44308 11.6837C6.44308 11.0288 5.70211 10.5161 4.75664 10.5161C3.81111 10.5161 3.07019 11.0288 3.07019 11.6837C3.07019 12.3386 3.81116 12.8513 4.75664 12.8513ZM4.75664 11.2946C5.32026 11.2946 5.66467 11.5467 5.66467 11.6837C5.66467 11.8207 5.32004 12.0728 4.75664 12.0728C4.19301 12.0728 3.84839 11.8207 3.84839 11.6837C3.84839 11.5467 4.19302 11.2946 4.75664 11.2946Z" fill="#01C3D0"/>
</svg>
