<svg width="25" height="25" viewBox="0 0 25 25" fill="none" xmlns="http://www.w3.org/2000/svg">
<g clip-path="url(#clip0_273_2252)">
<mask id="mask0_273_2252" style="mask-type:luminance" maskUnits="userSpaceOnUse" x="14" y="10" width="11" height="15">
<path d="M14.4531 10.5957H24.7998V24.7998H14.4531V10.5957Z" fill="white"/>
</mask>
<g mask="url(#mask0_273_2252)">
<path d="M23.3638 12.2702C22.3807 11.2103 21.0576 10.6265 19.6353 10.6265C18.2132 10.6265 16.8895 11.2103 15.9064 12.2702C14.8839 13.3835 14.3695 14.8714 14.486 16.3787L14.6094 18.0152C14.6699 18.817 14.7008 19.6315 14.7008 20.4358V23.0784C14.7008 24.0273 15.4513 24.799 16.3743 24.799C17.2972 24.799 18.0472 24.0273 18.0472 23.0784L18.0474 21.2281C18.0474 20.3152 18.76 19.5704 19.6353 19.5704C20.5108 19.5704 21.2209 20.3141 21.2209 21.2281V23.0797C21.2209 24.0287 21.9718 24.8003 22.8944 24.8003C23.817 24.8003 24.5673 24.0286 24.5673 23.0797V20.4371C24.5673 19.6328 24.5981 18.8184 24.6587 18.0165L24.7827 16.38V16.3802C24.9 14.8728 24.3861 13.3843 23.3638 12.2702ZM19.2744 18.8791C18.1718 19.0578 17.3261 20.0428 17.3261 21.2282V23.0798C17.3261 23.6314 16.899 24.0797 16.3737 24.0797C15.8486 24.0797 15.421 23.6315 15.421 23.0798V20.4372C15.421 19.6145 15.3897 18.782 15.3277 17.9622L15.2043 16.3257V16.3259C15.1023 15.0187 15.5478 13.7279 16.4343 12.7618C17.1708 11.954 18.1851 11.4541 19.2744 11.3622V13.2572C18.7278 13.3689 18.2635 13.7277 18.0176 14.2286C17.7716 14.7297 17.7716 15.3162 18.0176 15.8172C18.2635 16.3181 18.7278 16.6769 19.2744 16.7887L19.2744 18.8791ZM18.5538 15.023C18.5538 14.7361 18.6677 14.4613 18.8704 14.2585C19.0732 14.0558 19.348 13.9419 19.6347 13.9419C19.9215 13.9419 20.1964 14.0558 20.3991 14.2585C20.6019 14.4613 20.7158 14.7361 20.7158 15.023C20.7158 15.3097 20.6019 15.5845 20.3991 15.7873C20.1964 15.99 19.9215 16.1039 19.6347 16.1039C19.3482 16.1037 19.0734 15.9898 18.8706 15.7871C18.6681 15.5843 18.554 15.3095 18.5538 15.023ZM24.0655 16.3246L23.9421 17.9611C23.8801 18.7807 23.8485 19.6134 23.8485 20.4361V23.0787C23.8485 23.6303 23.4214 24.0786 22.8961 24.0786C22.371 24.0786 21.9434 23.6303 21.9434 23.0787L21.9432 21.2282C21.9432 20.043 21.0975 19.0579 19.9954 18.8791V16.7887C20.542 16.6769 21.0063 16.3182 21.2521 15.8173C21.4982 15.3162 21.4982 14.7297 21.2521 14.2287C21.0063 13.7278 20.542 13.369 19.9954 13.2572V11.3623C21.0843 11.4538 22.0984 11.9532 22.8348 12.7604C23.7216 13.7264 24.1673 15.0173 24.0659 16.3246L24.0655 16.3246Z" fill="#9B81E5"/>
</g>
<mask id="mask1_273_2252" style="mask-type:luminance" maskUnits="userSpaceOnUse" x="0" y="0" width="15" height="25">
<path d="M0.199707 0.199707H14.4043V24.7998H0.199707V0.199707Z" fill="white"/>
</mask>
<g mask="url(#mask1_273_2252)">
<path d="M14.2335 7.42633L12.6163 6.17702V6.17721C12.5413 6.11903 12.4464 6.09309 12.3521 6.10473L11.8236 6.1692V6.16901C11.626 5.55406 11.3798 4.95592 11.087 4.38028C10.2174 2.67799 8.97288 1.25338 7.48724 0.260216C7.36593 0.179537 7.208 0.179537 7.0867 0.260216C5.60105 1.25377 4.35652 2.67833 3.48694 4.38028C2.76594 5.80699 2.32195 7.35748 2.17849 8.94952L0.248074 12.321C0.184177 12.4323 0.184368 12.5695 0.248837 12.6807C0.313114 12.7919 0.431942 12.8604 0.560307 12.8605H2.40015C2.62369 13.9371 2.98912 14.9792 3.48697 15.9596C4.22017 17.3953 5.22149 18.6324 6.40826 19.5809C5.93962 19.8161 5.51411 20.1281 5.14883 20.5042C4.22832 21.4509 3.6958 22.7572 3.56573 24.3865C3.55066 24.5721 3.6794 24.7386 3.8627 24.771C3.95158 24.7868 5.9085 25.1073 7.28848 23.2493C8.29688 24.6081 9.61714 24.8002 10.2855 24.8002C10.4286 24.8019 10.5714 24.7918 10.7127 24.7701C10.896 24.7376 11.0246 24.5711 11.0097 24.3855C10.8794 22.7563 10.3471 21.4499 9.42661 20.5033H9.42642C9.06098 20.127 8.63468 19.8146 8.16568 19.5794C9.29254 18.6694 10.2287 17.5456 10.9203 16.2728C11.6781 16.0937 12.3527 15.6626 12.8336 15.05C13.829 13.778 14.3712 12.21 14.3739 10.5946V7.71186C14.3739 7.60008 14.3222 7.49462 14.2335 7.42633ZM1.18227 12.1398L2.12641 10.4918C2.13976 11.0436 2.18802 11.5941 2.2706 12.1398H1.18227ZM7.28725 0.997672C8.83334 2.09211 10.047 3.67633 10.8124 5.51789C9.7977 6.08664 8.56039 6.39811 7.28725 6.39811C6.0141 6.39811 4.77621 6.08683 3.7621 5.51789C4.52753 3.67614 5.74115 2.09211 7.28725 0.997672ZM6.92695 22.4938C6.08789 23.8766 4.89546 24.0735 4.32036 24.0794C4.64995 21.4329 6.13999 20.4625 6.92695 20.1308V22.4938ZM10.2541 24.0794C9.67754 24.0731 8.48603 23.8757 7.64756 22.4909V20.1318C8.43452 20.4633 9.92456 21.4333 10.2541 24.0794V24.0794ZM7.28725 19.3419C4.53989 17.397 2.84292 13.9078 2.84292 10.1695C2.84177 8.81838 3.06551 7.47638 3.50439 6.19845C4.60722 6.79372 5.93227 7.11857 7.28725 7.11857C8.64223 7.11857 9.96728 6.79375 11.0699 6.19845C11.509 7.47638 11.7325 8.81838 11.7316 10.1695C11.7316 13.9076 10.0346 17.3971 7.28725 19.3419ZM13.6535 10.5944C13.6514 12.0487 13.1633 13.4605 12.2668 14.6059C12.0275 14.9107 11.7255 15.1607 11.3814 15.3391C12.0917 13.7083 12.4564 11.9482 12.4524 10.1696C12.4528 9.05632 12.3113 7.94738 12.0311 6.86974L12.2934 6.83751L13.6535 7.88751L13.6535 10.5944Z" fill="#9B81E5"/>
</g>
<path d="M8.13966 4.9327H8.52399C8.72311 4.9327 8.88447 4.77134 8.88447 4.57221C8.88447 4.37328 8.72311 4.21191 8.52399 4.21191H8.13966C7.94072 4.21191 7.77936 4.37328 7.77936 4.57221C7.77936 4.77134 7.94072 4.9327 8.13966 4.9327Z" fill="#9B81E5"/>
<path d="M9.1211 8.54698L7.28663 9.00589L5.45215 8.54698C5.31387 8.51227 5.16815 8.56243 5.08041 8.67478C4.99267 8.78712 4.97951 8.94066 5.04665 9.06635L6.96847 12.6699C7.03103 12.7874 7.15349 12.8608 7.28662 12.8608C7.41975 12.8608 7.54201 12.7874 7.60476 12.6699L9.52659 9.06635C9.59373 8.94066 9.58057 8.78711 9.49283 8.67478C9.40509 8.56243 9.25938 8.51227 9.1211 8.54698ZM7.28663 11.7343L6.06441 9.44303L7.19927 9.72703H7.19908C7.25649 9.74134 7.31657 9.74134 7.37398 9.72703L8.50826 9.44303L7.28663 11.7343Z" fill="#9B81E5"/>
</g>
<defs>
<clipPath id="clip0_273_2252">
<rect width="25" height="25" fill="white"/>
</clipPath>
</defs>
</svg>
