<svg width="27" height="27" viewBox="0 0 27 27" fill="none" xmlns="http://www.w3.org/2000/svg">
<path d="M14.7451 24.7079H8.9332C8.70373 24.7079 8.51813 24.5221 8.51813 24.2928V17.6509C8.51813 17.4216 8.70373 17.2358 8.9332 17.2358H14.7451C14.9745 17.2358 15.1601 17.4216 15.1601 17.6509V24.2928C15.1603 24.5221 14.9745 24.7079 14.7451 24.7079ZM9.34822 23.8777H14.3298V18.0659H9.34822V23.8777Z" fill="#01C3D0"/>
<path d="M15.5756 18.0662H8.93374C8.70426 18.0662 8.51866 17.8804 8.51866 17.6511V15.5256C8.51866 15.4276 8.50898 15.3384 8.48941 15.2603C8.45851 15.1363 8.48653 15.0051 8.56563 14.9046C8.64432 14.804 8.76462 14.7451 8.89233 14.7451H15.5759C15.8054 14.7451 15.991 14.9309 15.991 15.1602V17.6508C15.991 17.8803 15.8054 18.0661 15.5759 18.0661L15.5756 18.0662ZM9.34876 17.236H15.1606V15.5755H9.34876V17.236Z" fill="#01C3D0"/>
<path d="M11.8394 16.4054C11.6099 16.4054 11.4243 16.2196 11.4243 15.9903V15.1602C11.4243 14.9309 11.6099 14.7451 11.8394 14.7451C12.0689 14.7451 12.2545 14.9309 12.2545 15.1602V15.9903C12.2545 16.2196 12.0689 16.4054 11.8394 16.4054Z" fill="#01C3D0"/>
<path d="M13.5 16.4054C13.2705 16.4054 13.0849 16.2196 13.0849 15.9903V15.1602C13.0849 14.9309 13.2705 14.7451 13.5 14.7451C13.7295 14.7451 13.9151 14.9309 13.9151 15.1602V15.9903C13.9151 16.2196 13.7295 16.4054 13.5 16.4054Z" fill="#01C3D0"/>
<path d="M10.1788 16.4054C9.9493 16.4054 9.7637 16.2196 9.7637 15.9903V15.1602C9.7637 14.9309 9.9493 14.7451 10.1788 14.7451C10.4083 14.7451 10.5939 14.9309 10.5939 15.1602V15.9903C10.5939 16.2196 10.4083 16.4054 10.1788 16.4054Z" fill="#01C3D0"/>
<path d="M14.7451 22.6323H11.424C11.1945 22.6323 11.0089 22.4465 11.0089 22.2172V19.7266C11.0089 19.4973 11.1945 19.3115 11.424 19.3115H14.7451C14.9746 19.3115 15.1602 19.4973 15.1602 19.7266V22.2172C15.1604 22.4465 14.9746 22.6323 14.7451 22.6323ZM11.8393 21.802H14.3299V20.1415H11.8393V21.802Z" fill="#01C3D0"/>
<path d="M18.8968 24.708H14.7454C14.516 24.708 14.3304 24.5222 14.3304 24.293C14.3304 24.0637 14.516 23.8779 14.7454 23.8779H18.4816V3.12164H6.02782V9.34852C6.02782 9.57779 5.84222 9.76359 5.61274 9.76359C5.38326 9.76359 5.19766 9.57779 5.19766 9.34852V2.70609C5.19766 2.47682 5.38326 2.29102 5.61274 2.29102H18.8971C19.1265 2.29102 19.3121 2.47682 19.3121 2.70609V24.2924C19.3121 24.5219 19.1265 24.7077 18.8971 24.7077L18.8968 24.708Z" fill="#01C3D0"/>
<path d="M25.5387 24.7082H18.8969C18.6674 24.7082 18.4818 24.5224 18.4818 24.2931L18.4816 11.8394C18.4816 11.6101 18.6672 11.4243 18.8966 11.4243H25.5385C25.768 11.4243 25.9536 11.6101 25.9536 11.8394V24.2931C25.9538 24.5224 25.768 24.7082 25.5387 24.7082ZM19.3119 23.8781H25.1237V12.2544H19.3119V23.8781Z" fill="#01C3D0"/>
<path d="M23.0476 16.4054H21.3871C20.7003 16.4054 20.1416 15.8467 20.1416 15.16C20.1416 14.4732 20.7003 13.9146 21.3871 13.9146H23.0476C23.7343 13.9146 24.293 14.4732 24.293 15.16C24.293 15.8467 23.7343 16.4054 23.0476 16.4054ZM21.3871 14.7449C21.158 14.7449 20.972 14.9311 20.972 15.16C20.972 15.3888 21.158 15.5751 21.3871 15.5751H23.0476C23.2766 15.5751 23.4626 15.3888 23.4626 15.16C23.4626 14.9311 23.2766 14.7449 23.0476 14.7449H21.3871Z" fill="#01C3D0"/>
<path d="M23.0476 19.7267H21.3871C20.7003 19.7267 20.1416 19.168 20.1416 18.4813C20.1416 17.7945 20.7003 17.2358 21.3871 17.2358H23.0476C23.7343 17.2358 24.293 17.7945 24.293 18.4813C24.293 19.168 23.7343 19.7267 23.0476 19.7267ZM21.3871 18.0662C21.158 18.0662 20.972 18.2524 20.972 18.4813C20.972 18.7101 21.158 18.8963 21.3871 18.8963H23.0476C23.2766 18.8963 23.4626 18.7101 23.4626 18.4813C23.4626 18.2524 23.2766 18.0662 23.0476 18.0662H21.3871Z" fill="#01C3D0"/>
<path d="M23.0476 23.0475H21.3871C20.7003 23.0475 20.1416 22.4888 20.1416 21.8021C20.1416 21.1153 20.7003 20.5566 21.3871 20.5566H23.0476C23.7343 20.5566 24.293 21.1153 24.293 21.8021C24.293 22.4888 23.7343 23.0475 23.0476 23.0475ZM21.3871 21.387C21.158 21.387 20.972 21.5732 20.972 21.8021C20.972 22.0309 21.158 22.2172 21.3871 22.2172H23.0476C23.2766 22.2172 23.4626 22.0309 23.4626 21.8021C23.4626 21.5732 23.2766 21.387 23.0476 21.387H21.3871Z" fill="#01C3D0"/>
<path d="M22.2175 19.3119C21.9881 19.3119 21.8025 19.1261 21.8025 18.8968V17.6514C21.8025 17.4221 21.9881 17.2363 22.2175 17.2363C22.447 17.2363 22.6326 17.4221 22.6326 17.6514V18.8968C22.6326 19.1261 22.447 19.3119 22.2175 19.3119Z" fill="#01C3D0"/>
<path d="M10.1788 8.1028C9.03429 8.1028 8.10321 7.17151 8.10321 6.02723C8.10321 4.88274 9.0345 3.95166 10.1788 3.95166C11.3233 3.95166 12.2544 4.88295 12.2544 6.02723C12.2544 7.17151 11.3231 8.1028 10.1788 8.1028ZM10.1788 4.78175C9.49202 4.78175 8.93336 5.34042 8.93336 6.02718C8.93336 6.71394 9.49202 7.27261 10.1788 7.27261C10.8655 7.27261 11.4242 6.71394 11.4242 6.02718C11.424 5.34042 10.8655 4.78175 10.1788 4.78175Z" fill="#01C3D0"/>
<path d="M15.1606 8.1028C14.0161 8.1028 13.085 7.17151 13.085 6.02723C13.085 4.88274 14.0163 3.95166 15.1606 3.95166C16.3051 3.95166 17.2362 4.88295 17.2362 6.02723C17.2362 7.17151 16.3049 8.1028 15.1606 8.1028ZM15.1606 4.78175C14.4738 4.78175 13.9152 5.34042 13.9152 6.02718C13.9152 6.71394 14.4738 7.27261 15.1606 7.27261C15.8474 7.27261 16.406 6.71394 16.406 6.02718C16.4058 5.34042 15.8471 4.78175 15.1606 4.78175Z" fill="#01C3D0"/>
<path d="M10.5938 6.44295H9.76368C9.5342 6.44295 9.3486 6.25714 9.3486 6.02787C9.3486 5.7986 9.5342 5.61279 9.76368 5.61279H10.5938C10.8233 5.61279 11.0089 5.7986 11.0089 6.02787C11.0089 6.25694 10.8233 6.44295 10.5938 6.44295Z" fill="#01C3D0"/>
<path d="M10.1788 13.0842C9.03429 13.0842 8.10321 12.153 8.10321 11.0087C8.10321 9.86418 9.0345 8.93311 10.1788 8.93311C11.3233 8.93311 12.2544 9.86439 12.2544 11.0087C12.2544 12.1532 11.3231 13.0842 10.1788 13.0842ZM10.1788 9.7632C9.49202 9.7632 8.93336 10.3219 8.93336 11.0086C8.93336 11.6954 9.49202 12.2541 10.1788 12.2541C10.8655 12.2541 11.4242 11.6954 11.4242 11.0086C11.424 10.3219 10.8655 9.7632 10.1788 9.7632Z" fill="#01C3D0"/>
<path d="M10.5938 11.4244H9.76368C9.5342 11.4244 9.3486 11.2386 9.3486 11.0093C9.3486 10.78 9.5342 10.5942 9.76368 10.5942H10.5938C10.8233 10.5942 11.0089 10.78 11.0089 11.0093C11.0089 11.2386 10.8233 11.4244 10.5938 11.4244Z" fill="#01C3D0"/>
<path d="M15.1606 13.0842C14.0161 13.0842 13.085 12.153 13.085 11.0087C13.085 9.86418 14.0163 8.93311 15.1606 8.93311C16.3051 8.93311 17.2362 9.86439 17.2362 11.0087C17.2362 12.1532 16.3049 13.0842 15.1606 13.0842ZM15.1606 9.7632C14.4738 9.7632 13.9152 10.3219 13.9152 11.0086C13.9152 11.6954 14.4738 12.2541 15.1606 12.2541C15.8474 12.2541 16.406 11.6954 16.406 11.0086C16.4058 10.3219 15.8471 9.7632 15.1606 9.7632Z" fill="#01C3D0"/>
<path d="M15.1606 11.4242C15.0529 11.4242 14.9445 11.3785 14.8658 11.3039C14.7909 11.225 14.7453 11.1171 14.7453 11.0092C14.7453 10.9012 14.7907 10.7933 14.8656 10.7144C15.0193 10.5607 15.3015 10.5607 15.455 10.7144C15.5298 10.7933 15.5757 10.9012 15.5757 11.0092C15.5757 11.1169 15.53 11.225 15.4554 11.3039C15.3763 11.3785 15.2725 11.4242 15.1606 11.4242Z" fill="#01C3D0"/>
<path d="M15.1606 6.44299C15.0529 6.44299 14.9445 6.39726 14.8658 6.32269C14.7909 6.24359 14.7453 6.13565 14.7453 6.02771C14.7453 5.91976 14.7907 5.81182 14.8656 5.73293C15.0193 5.57926 15.3015 5.57926 15.455 5.73293C15.5298 5.81183 15.5757 5.91977 15.5757 6.02771C15.5757 6.13544 15.53 6.24359 15.4554 6.32248C15.3763 6.39705 15.2725 6.44299 15.1606 6.44299Z" fill="#01C3D0"/>
<path d="M8.93374 24.7078H1.46127C1.2318 24.7078 1.0462 24.522 1.0462 24.2927L1.04599 15.5251C1.04599 14.6284 1.61763 13.8376 2.46897 13.5575L3.25176 13.2965C3.42129 13.2386 3.53686 13.0796 3.53686 12.9016V11.8389C3.53686 11.6096 3.72245 11.4238 3.95193 11.4238H6.44258C6.67206 11.4238 6.85766 11.6096 6.85766 11.8389V12.9016C6.85766 13.0796 6.97322 13.2386 7.14543 13.2975L7.92695 13.5579C8.77687 13.8376 9.34851 14.6285 9.34851 15.5252V24.2928C9.34851 24.522 9.16291 24.7079 8.93343 24.7079L8.93374 24.7078ZM1.87682 23.8777H8.51872V15.5251C8.51872 14.9877 8.17615 14.5138 7.66653 14.346L6.88047 14.0842C6.36919 13.9097 6.02786 13.4349 6.02786 12.9015V12.2539H4.36736V12.9015C4.36736 13.4348 4.02603 13.9097 3.51765 14.0831L2.73033 14.3456C2.21926 14.5138 1.87666 14.9876 1.87666 15.5251L1.87682 23.8777Z" fill="#01C3D0"/>
<path d="M7.27312 12.2544H3.12193C2.89245 12.2544 2.70685 12.0686 2.70685 11.8393V9.34867C2.70685 9.1194 2.89245 8.93359 3.12193 8.93359H7.27312C7.5026 8.93359 7.6882 9.1194 7.6882 9.34867V11.8393C7.6882 12.0686 7.5026 12.2544 7.27312 12.2544ZM3.537 11.424H6.85805V9.76354H3.537V11.424Z" fill="#01C3D0"/>
<path d="M8.93373 21.3876H1.46127C1.2318 21.3876 1.0462 21.2018 1.0462 20.9725L1.04599 16.8213C1.04599 16.5921 1.23159 16.4062 1.46107 16.4062H8.93353C9.16301 16.4062 9.34861 16.5921 9.34861 16.8213V20.9725C9.34881 21.2018 9.16321 21.3876 8.93373 21.3876ZM1.87682 20.5575H8.51872V17.2364H1.87682V20.5575Z" fill="#01C3D0"/>
<path d="M5.19752 20.1415C4.96804 20.1415 4.78244 19.9557 4.78244 19.7265V18.066C4.78244 17.8367 4.96804 17.6509 5.19752 17.6509C5.427 17.6509 5.6126 17.8367 5.6126 18.066V19.7265C5.6126 19.9557 5.427 20.1415 5.19752 20.1415Z" fill="#01C3D0"/>
<path d="M6.02754 19.3116H4.36704C4.13756 19.3116 3.95197 19.1258 3.95197 18.8965C3.95197 18.6672 4.13756 18.4814 4.36704 18.4814H6.02754C6.25702 18.4814 6.44262 18.6672 6.44262 18.8965C6.44283 19.1258 6.25702 19.3116 6.02754 19.3116Z" fill="#01C3D0"/>
</svg>
