<svg width="25" height="25" viewBox="0 0 25 25" fill="none" xmlns="http://www.w3.org/2000/svg">
<path d="M24.7702 0.379028C24.6126 0.141724 24.3455 0 24.056 0H16.6258C16.3364 0 16.0692 0.141723 15.9114 0.378822C15.7598 0.607062 15.7326 0.8936 15.8385 1.14532L17.3428 4.72714C17.3642 4.77782 17.3974 4.81984 17.4349 4.85733V6.227C17.4349 6.2338 17.4384 6.23936 17.4388 6.24595C17.439 6.25234 17.4359 6.25811 17.4365 6.26449L19.0221 23.7032C19.0845 24.39 19.6516 24.9077 20.3408 24.9077C21.0301 24.9077 21.5972 24.39 21.6596 23.7032L23.2451 6.26449C23.2457 6.25811 23.2427 6.25234 23.2429 6.24595C23.2433 6.23936 23.2468 6.2338 23.2468 6.227V4.85733C23.2843 4.81984 23.3174 4.77782 23.3389 4.72714L24.8432 1.14553C24.9489 0.893805 24.9217 0.607267 24.7701 0.379033L24.7702 0.379028ZM22.4165 5.81172H18.2653V4.98158H22.4165V5.81172ZM20.8327 23.628C20.8096 23.8841 20.598 24.0771 20.341 24.0771C20.0839 24.0771 19.8723 23.8839 19.8492 23.6278L18.3047 6.64156H22.3774L20.8327 23.628ZM22.68 4.15112H18.0031L16.626 0.830065H17.5514L18.287 3.0371C18.3448 3.21096 18.5068 3.32117 18.6806 3.32117C18.7241 3.32117 18.7682 3.31437 18.812 3.29975C19.0294 3.22724 19.147 2.99199 19.0743 2.77446L18.426 0.830094H19.9258V2.90567C19.9258 3.13494 20.1114 3.32074 20.3409 3.32074C20.5704 3.32074 20.756 3.13494 20.756 2.90567V0.830094H22.2558L21.6077 2.77446C21.5352 2.99199 21.6526 3.22703 21.87 3.29975C21.9139 3.31437 21.9579 3.32117 22.0014 3.32117C22.1753 3.32117 22.3372 3.21117 22.395 3.0371L23.1306 0.830065H24.056L24.0778 0.823679L22.68 4.15112Z" fill="#01C3D0"/>
<path d="M17.0198 20.3416H14.1069C16.3316 19.1528 17.85 16.8086 17.85 14.1147C17.85 10.2233 14.6843 7.0578 10.7931 7.0578C8.91809 7.0578 7.12618 7.8138 5.8113 9.1194C5.808 7.43764 5.2164 4.94906 4.12111 3.63291L3.6395 3.05573C3.48211 2.86684 3.15953 2.86684 3.00215 3.05573L2.52012 3.63333C1.86896 4.41507 1.47387 5.49549 1.25698 6.26346C0.98589 7.21885 0.830155 8.26468 0.830155 9.13358V13.7001L0.415078 13.6999C0.185599 13.6999 0 13.8857 0 14.1149V24.078C0 24.3073 0.185599 24.4931 0.415078 24.4931H17.0201C17.7068 24.4931 18.2655 23.9344 18.2655 23.2477V21.5872C18.2655 20.9006 17.7068 20.342 17.0201 20.342L17.0198 20.3416ZM17.0198 21.1719C17.2489 21.1719 17.4349 21.3582 17.4349 21.587V22.0021H6.64176V21.172L17.0198 21.1719ZM6.24514 13.7C6.45567 11.376 8.4149 9.54839 10.7931 9.54839C13.3109 9.54839 15.3595 11.5968 15.3595 14.1149C15.3593 16.6327 13.3109 18.6811 10.7931 18.6811C9.00526 18.6811 7.38531 17.6407 6.64186 16.0228L6.64166 14.1149C6.64166 14.0584 6.62992 14.0047 6.60952 13.9556C6.60211 13.9379 6.5883 13.9245 6.57862 13.9081C6.56153 13.879 6.54608 13.8491 6.5228 13.8252C6.50776 13.8098 6.48778 13.8009 6.47047 13.788C6.44555 13.7694 6.42248 13.749 6.39385 13.7363C6.37345 13.7272 6.35018 13.726 6.32834 13.7204C6.30074 13.713 6.27481 13.7015 6.24514 13.7ZM6.64168 19.8146C6.90906 20.0098 7.18674 20.1872 7.47636 20.3417H6.64168V19.8146ZM10.7931 7.88815C14.2268 7.88815 17.02 10.6817 17.02 14.115C17.0198 17.5485 14.2267 20.3419 10.7931 20.3419C9.25145 20.3419 7.78412 19.7804 6.64189 18.757V17.5639C7.65107 18.7776 9.16222 19.5118 10.7931 19.5118C13.7687 19.5118 16.1899 17.0909 16.1899 14.1149C16.1899 11.1389 13.7689 8.71809 10.7931 8.71809C8.55145 8.71809 6.62586 10.0924 5.81153 12.0424V10.3741C6.98878 8.81491 8.84065 7.88789 10.7931 7.88789V7.88815ZM2.05553 6.48985C2.33156 5.51284 2.72315 4.68697 3.15778 4.16479L3.32072 3.96951L3.48325 4.16438C4.34081 5.19476 4.88234 7.19291 4.96909 8.71825H1.67235C1.71169 8.01583 1.84686 7.22565 2.05553 6.48985ZM1.66023 9.54865H4.98128V13.6998H1.66023V9.54865ZM0.830081 14.5302H5.81142V18.9389L5.81163 20.757V23.663H0.830076L0.830081 14.5302ZM17.0201 23.6627H6.64194V22.8326H17.4351V23.2477C17.4351 23.4765 17.2491 23.6628 17.02 23.6628L17.0201 23.6627Z" fill="#01C3D0"/>
<path d="M8.71732 15.3598C8.82361 15.3598 8.9297 15.3192 9.01086 15.2382L12.3319 11.9172C12.494 11.7551 12.494 11.4924 12.3319 11.3301C12.1698 11.168 11.9072 11.168 11.7448 11.3301L8.42377 14.6511C8.26166 14.8133 8.26166 15.0759 8.42377 15.2382C8.50494 15.3192 8.61124 15.3598 8.71732 15.3598Z" fill="#01C3D0"/>
<path d="M9.25417 16.8994C9.33533 16.9803 9.44141 17.0209 9.54771 17.0209C9.654 17.0209 9.76008 16.9803 9.84125 16.8994L13.1623 13.5783C13.3244 13.4162 13.3244 13.1535 13.1623 12.9912C13.0002 12.8291 12.7375 12.8291 12.5752 12.9912L9.25416 16.3123C9.09204 16.4744 9.09205 16.7372 9.25417 16.8994Z" fill="#01C3D0"/>
</svg>
