<svg width="27" height="27" viewBox="0 0 27 27" fill="none" xmlns="http://www.w3.org/2000/svg">
<path d="M24.2931 0.630917H5.19749C4.96821 0.630917 4.78241 0.816721 4.78241 1.04599V2.29142H4.36713C4.13785 2.29142 3.95205 2.47723 3.95205 2.7065V4.78207L3.53697 4.78228C3.09203 4.78228 2.68088 5.01958 2.4584 5.40481C2.23592 5.79022 2.23592 6.26501 2.4584 6.65023C2.68087 7.03565 3.09205 7.27298 3.53697 7.27298H3.95205V8.93347H3.53697C3.09203 8.93347 2.68088 9.17078 2.4584 9.55622C2.23592 9.94142 2.23592 10.4163 2.4584 10.8016C2.68087 11.1869 3.09205 11.4242 3.53697 11.4242H3.95205V13.0847H3.53697C3.09203 13.0847 2.68088 13.3222 2.4584 13.7074C2.23592 14.0928 2.23592 14.5675 2.4584 14.9528C2.68087 15.3383 3.09205 15.5756 3.53697 15.5756H3.95205V17.2361H3.53697C3.09203 17.2361 2.68088 17.4734 2.4584 17.8588C2.23592 18.244 2.23592 18.7189 2.4584 19.104C2.68087 19.4895 3.09205 19.7268 3.53697 19.7268H3.95205V21.3873H3.53697C3.09203 21.3873 2.68088 21.6246 2.4584 22.01C2.23591 22.3955 2.23592 22.8701 2.4584 23.2554C2.68087 23.6407 3.09205 23.8782 3.53697 23.8782H3.95205V25.9538C3.95205 26.0638 3.99572 26.1694 4.07359 26.2473C4.15145 26.3252 4.25713 26.3688 4.36713 26.3688H22.6327C22.7427 26.3688 22.8484 26.3252 22.9263 26.2473C23.0041 26.1694 23.0478 26.0638 23.0478 25.9538V25.5387H24.2932C24.4032 25.5387 24.5089 25.4948 24.5868 25.4169C24.6646 25.3391 24.7083 25.2336 24.7083 25.1234V1.04594C24.7083 0.935938 24.6646 0.830264 24.5868 0.752396C24.5089 0.674735 24.4032 0.630859 24.2932 0.630859L24.2931 0.630917ZM3.12186 6.02775C3.12186 5.79848 3.30767 5.61268 3.53694 5.61268H5.19744C5.42671 5.61268 5.61252 5.79848 5.61252 6.02775C5.61252 6.25703 5.42671 6.44304 5.19744 6.44304H3.53694C3.30767 6.44304 3.12186 6.25703 3.12186 6.02775ZM3.12186 10.1792C3.12186 9.94989 3.30767 9.76388 3.53694 9.76388H5.19744C5.42671 9.76388 5.61252 9.94989 5.61252 10.1792C5.61252 10.4084 5.42671 10.5942 5.19744 10.5942H3.53694C3.30767 10.5942 3.12186 10.4084 3.12186 10.1792ZM3.12186 14.3304C3.12186 14.1011 3.30767 13.9153 3.53694 13.9153H5.19744C5.42671 13.9153 5.61252 14.1011 5.61252 14.3304C5.61252 14.5596 5.42671 14.7454 5.19744 14.7454H3.53694C3.30767 14.7454 3.12186 14.5596 3.12186 14.3304ZM3.12186 18.4816C3.12186 18.2523 3.30767 18.0665 3.53694 18.0665H5.19744C5.42671 18.0665 5.61252 18.2523 5.61252 18.4816C5.61252 18.7108 5.42671 18.8968 5.19744 18.8968H3.53694C3.30767 18.8968 3.12186 18.7108 3.12186 18.4816ZM3.12186 22.633C3.12186 22.4037 3.30767 22.2179 3.53694 22.2179H5.19744C5.42671 22.2179 5.61252 22.4037 5.61252 22.633C5.61252 22.8622 5.42671 23.048 5.19744 23.048H3.53694C3.30767 23.048 3.12186 22.8622 3.12186 22.633ZM22.2175 25.5389H4.78247V23.8784H5.19754C5.64249 23.8784 6.05363 23.6409 6.27612 23.2557C6.4986 22.8702 6.4986 22.3956 6.27612 22.0102C6.05365 21.6248 5.64246 21.3875 5.19754 21.3875H4.78247V19.727H5.19754C5.64249 19.727 6.05363 19.4897 6.27612 19.1042C6.4986 18.719 6.4986 18.2442 6.27612 17.859C6.05365 17.4736 5.64246 17.2363 5.19754 17.2363H4.78247V15.5758H5.19754C5.64249 15.5758 6.05363 15.3385 6.27612 14.953C6.4986 14.5676 6.4986 14.093 6.27612 13.7076C6.05365 13.3224 5.64246 13.0849 5.19754 13.0849H4.78247V11.4244H5.19754C5.64249 11.4244 6.05363 11.1871 6.27612 10.8018C6.4986 10.4164 6.4986 9.94164 6.27612 9.55642C6.05365 9.17101 5.64246 8.93368 5.19754 8.93368H4.78247V7.27318H5.19754C5.64249 7.27318 6.05363 7.03588 6.27612 6.65044C6.4986 6.26523 6.4986 5.7904 6.27612 5.40501C6.05365 5.0198 5.64246 4.78248 5.19754 4.78248H4.78247V3.12198H22.2175V25.5389ZM23.878 24.7087L23.0476 24.7085V2.7067C23.0476 2.59671 23.004 2.49103 22.9261 2.41316C22.8482 2.3355 22.7426 2.29163 22.6326 2.29163H5.61255V1.46148H23.8782L23.878 24.7087Z" fill="#01C3D0"/>
<path d="M9.34874 7.68857C9.93952 7.68363 10.4832 7.36516 10.7763 6.85226C11.0694 6.33954 11.0679 5.7094 10.7728 5.19793L11.7193 4.25551L11.1297 3.65771L10.1791 4.60424C9.73247 4.33645 9.18598 4.29361 8.70314 4.48868C8.22029 4.68355 7.85691 5.09391 7.72159 5.59674C7.58628 6.09956 7.69461 6.63682 8.01431 7.04778C8.33402 7.45894 8.82819 7.69601 9.34874 7.68857ZM10.1791 6.02807C10.1791 6.24828 10.0915 6.45942 9.93581 6.61516C9.78008 6.7709 9.56893 6.85844 9.34871 6.85844C9.27723 6.85741 9.20617 6.84773 9.13695 6.8294L10.1498 5.81653H10.15C10.1684 5.88554 10.1781 5.95659 10.1791 6.02807ZM9.34874 5.19793C9.42022 5.19875 9.49149 5.20864 9.5605 5.22697L8.54763 6.23984C8.52929 6.17083 8.5194 6.09956 8.51858 6.02808C8.51858 5.80787 8.60592 5.59673 8.76166 5.44099C8.91739 5.28525 9.12852 5.19793 9.34874 5.19793Z" fill="#01C3D0"/>
<path d="M9.34874 11.8396C9.78916 11.8396 10.2114 11.6645 10.5229 11.3533C10.8344 11.0418 11.0093 10.6195 11.0093 10.1791C11.0093 9.73868 10.8344 9.3162 10.5229 9.00491C10.2115 8.69345 9.78918 8.51855 9.34874 8.51855C8.90832 8.51855 8.48606 8.69344 8.17456 9.00491C7.8633 9.31616 7.6882 9.73865 7.6882 10.1791C7.6882 10.6195 7.8633 11.0418 8.17456 11.3533C8.48602 11.6645 8.9083 11.8396 9.34874 11.8396ZM9.34874 9.34878C9.56895 9.34878 9.78009 9.43633 9.93583 9.59206C10.0916 9.74779 10.1791 9.95893 10.1791 10.1791C10.1791 10.3994 10.0916 10.6105 9.93583 10.7662C9.7801 10.922 9.56896 11.0093 9.34874 11.0093C9.12853 11.0093 8.91739 10.922 8.76165 10.7662C8.60591 10.6105 8.51857 10.3994 8.51857 10.1791C8.51857 9.95894 8.60591 9.7478 8.76165 9.59206C8.91738 9.43632 9.12852 9.34878 9.34874 9.34878Z" fill="#01C3D0"/>
<path d="M9.34874 15.9909C9.93952 15.9859 10.4832 15.6675 10.7763 15.1546C11.0694 14.6417 11.0679 14.0117 10.7728 13.5002L11.7193 12.5578L11.1297 11.9683L10.1791 12.9066C9.73247 12.6388 9.18598 12.5959 8.70314 12.7908C8.22029 12.9859 7.85691 13.3962 7.72159 13.8991C7.58628 14.4019 7.69461 14.9391 8.01431 15.3501C8.33402 15.7613 8.82819 15.9983 9.34874 15.9909ZM10.1791 14.3304C10.1791 14.5506 10.0915 14.7617 9.93581 14.9175C9.78008 15.0732 9.56893 15.1608 9.34871 15.1608C9.27723 15.1597 9.20617 15.1501 9.13695 15.1317L10.15 14.1186C10.1684 14.1879 10.1781 14.2589 10.1791 14.3304ZM9.34874 13.5002C9.42022 13.5011 9.49149 13.5108 9.5605 13.5293L8.54763 14.5422C8.52929 14.4729 8.5194 14.4019 8.51858 14.3304C8.51858 14.1102 8.60592 13.8991 8.76166 13.7433C8.91739 13.5876 9.12852 13.5002 9.34874 13.5002Z" fill="#01C3D0"/>
<path d="M9.34874 20.1423C9.93952 20.1373 10.4832 19.8189 10.7763 19.3059C11.0694 18.7932 11.0679 18.1631 10.7728 17.6516L11.7193 16.7092L11.1297 16.1196L10.1791 17.0579C9.73247 16.7901 9.18598 16.7473 8.70314 16.9424C8.2203 17.1374 7.85691 17.5476 7.72159 18.0504C7.58628 18.5532 7.69461 19.0905 8.01431 19.5015C8.33402 19.9126 8.82819 20.1499 9.34874 20.1423ZM10.1791 18.4818C10.1791 18.702 10.0915 18.9133 9.93581 19.0689C9.78008 19.2246 9.56893 19.3121 9.34871 19.3121C9.27723 19.3111 9.20617 19.3014 9.13695 19.2831L10.1498 18.2702H10.15C10.1684 18.3392 10.1781 18.4103 10.1791 18.4818ZM9.34874 17.6516C9.42022 17.6524 9.49149 17.6623 9.5605 17.6807L8.54763 18.6935C8.52929 18.6245 8.5194 18.5535 8.51858 18.4818C8.51858 18.2618 8.60592 18.0504 8.76166 17.8947C8.91739 17.7392 9.12852 17.6516 9.34874 17.6516Z" fill="#01C3D0"/>
<path d="M9.34874 24.2932C9.78916 24.2932 10.2114 24.1184 10.5229 23.8069C10.8344 23.4954 11.0093 23.0731 11.0093 22.6327C11.0093 22.1923 10.8344 21.77 10.5229 21.4585C10.2115 21.147 9.78918 20.9722 9.34874 20.9722C8.90832 20.9722 8.48606 21.1471 8.17456 21.4585C7.8633 21.77 7.6882 22.1923 7.6882 22.6327C7.6882 23.0731 7.8633 23.4954 8.17456 23.8069C8.48602 24.1183 8.9083 24.2932 9.34874 24.2932ZM9.34874 21.8024C9.56895 21.8024 9.78009 21.8899 9.93583 22.0457C10.0916 22.2014 10.1791 22.4125 10.1791 22.6328C10.1791 22.853 10.0916 23.0641 9.93583 23.2199C9.7801 23.3756 9.56896 23.4629 9.34874 23.4629C9.12853 23.4629 8.91739 23.3756 8.76165 23.2199C8.60591 23.0641 8.51857 22.853 8.51857 22.6328C8.51857 22.4126 8.60591 22.2014 8.76165 22.0457C8.91738 21.8899 9.12852 21.8024 9.34874 21.8024Z" fill="#01C3D0"/>
<path d="M12.2544 4.78271H20.9719V5.61286H12.2544V4.78271Z" fill="#01C3D0"/>
<path d="M12.2544 6.44336H20.9719V7.2735H12.2544V6.44336Z" fill="#01C3D0"/>
<path d="M12.2544 8.93408H20.9719V9.76423H12.2544V8.93408Z" fill="#01C3D0"/>
<path d="M12.2544 10.5942H20.9719V11.4244H12.2544V10.5942Z" fill="#01C3D0"/>
<path d="M12.2544 13.0845H20.9719V13.9146H12.2544V13.0845Z" fill="#01C3D0"/>
<path d="M12.2544 14.7451H20.9719V15.5753H12.2544V14.7451Z" fill="#01C3D0"/>
<path d="M12.2544 17.2363H20.9719V18.0665H12.2544V17.2363Z" fill="#01C3D0"/>
<path d="M12.2544 18.897H20.9719V19.7271H12.2544V18.897Z" fill="#01C3D0"/>
<path d="M12.2544 21.3877H20.9719V22.2178H12.2544V21.3877Z" fill="#01C3D0"/>
<path d="M12.2544 23.0479H20.9719V23.878H12.2544V23.0479Z" fill="#01C3D0"/>
</svg>
