<svg width="27" height="27" viewBox="0 0 27 27" fill="none" xmlns="http://www.w3.org/2000/svg">
<mask id="mask0_281_2101" style="mask-type:luminance" maskUnits="userSpaceOnUse" x="0" y="4" width="27" height="19">
<path d="M0.215698 4.00781H26.7838V22.9922H0.215698V4.00781Z" fill="white"/>
</mask>
<g mask="url(#mask0_281_2101)">
<path d="M26.3947 16.7431C26.4979 16.7431 26.597 16.7021 26.6699 16.629C26.7428 16.5561 26.7838 16.457 26.7838 16.3538V14.2782C26.7838 14.175 26.7428 14.0761 26.6699 14.003C26.597 13.9301 26.4979 13.8891 26.3947 13.8891H24.7861V11.6359C24.7861 11.2243 24.6085 10.8327 24.2989 10.5618L22.7105 9.17218V6.36492H22.8401C22.9435 6.36492 23.0423 6.32393 23.1153 6.2508C23.1884 6.17788 23.2294 6.0788 23.2294 5.97559V5.19734C23.229 4.88773 23.106 4.59089 22.887 4.37215C22.6683 4.15318 22.3714 4.02999 22.0618 4.02979H20.5051C20.1955 4.02999 19.8987 4.15317 19.6797 4.37215C19.461 4.59091 19.3378 4.88775 19.3376 5.19734V5.9758V5.97559C19.3376 6.19065 19.5118 6.36492 19.7267 6.36492H19.8565V9.17218L18.2681 10.5618C17.9584 10.8327 17.7807 11.2243 17.7809 11.6359V13.8891H17.0024V11.6359C17.0026 11.2243 16.8248 10.8327 16.5152 10.5618L14.9268 9.17218V6.36492H15.0566C15.1598 6.36492 15.2587 6.32393 15.3318 6.2508C15.4047 6.17788 15.4457 6.0788 15.4457 5.97559V5.19734C15.4455 4.88773 15.3223 4.59089 15.1034 4.37215C14.8846 4.15318 14.5878 4.02999 14.2782 4.02979H12.7215C12.4118 4.02999 12.115 4.15317 11.8963 4.37215C11.6773 4.59091 11.5543 4.88775 11.5539 5.19734V5.9758V5.97559C11.5539 6.19065 11.7282 6.36492 11.943 6.36492H12.0728V9.17218L10.4844 10.5618C10.1748 10.8327 9.99722 11.2243 9.99722 11.6359V13.8891H9.21875V11.6359C9.21896 11.2243 9.04139 10.8327 8.73158 10.5618L7.14317 9.17218V6.36492H7.27294C7.37614 6.36492 7.47522 6.32393 7.54815 6.2508C7.62107 6.17788 7.66207 6.0788 7.66207 5.97559V5.19733C7.66186 4.88773 7.53868 4.59089 7.31991 4.37215C7.10094 4.15318 6.8041 4.02999 6.49451 4.02979H4.93779C4.62839 4.02999 4.33156 4.15317 4.11261 4.37215C3.89364 4.59091 3.77065 4.88775 3.77024 5.19733V5.9758V5.97559C3.77024 6.19065 3.94451 6.36492 4.15957 6.36492H4.28934V9.17218L2.70093 10.5618C2.39112 10.8327 2.21355 11.2243 2.21355 11.6359V13.8891H0.604941C0.390091 13.8891 0.21582 14.0633 0.21582 14.2782V16.3538C0.21582 16.5688 0.390091 16.7431 0.604941 16.7431H1.17574V20.116L0.604941 20.1158C0.390091 20.1158 0.21582 20.2901 0.21582 20.5051V22.5807C0.21582 22.7956 0.390091 22.9698 0.604941 22.9698H26.3947C26.4979 22.9698 26.597 22.9288 26.6699 22.8559C26.7428 22.783 26.7838 22.6839 26.7838 22.5807V20.5051C26.7838 20.4019 26.7428 20.3029 26.6699 20.2299C26.597 20.157 26.4979 20.1158 26.3947 20.1158H25.8239V16.7429L26.3947 16.7431ZM20.1156 5.19743C20.1156 4.98237 20.2899 4.80831 20.5049 4.80831H22.0617C22.1649 4.80831 22.2639 4.8493 22.3369 4.92223C22.4098 4.99515 22.4508 5.09423 22.4508 5.19744V5.58656H20.1157L20.1156 5.19743ZM18.5589 11.6358C18.5589 11.4487 18.6396 11.2707 18.7805 11.1476L20.5018 9.64279C20.5867 9.56864 20.6351 9.4611 20.6347 9.34843V6.36482H21.9321L21.9319 9.34843C21.9319 9.46069 21.9803 9.5674 22.0647 9.64114L23.786 11.1459C23.9267 11.2691 24.0075 11.4471 24.0075 11.6343V13.8889H22.9697V12.9809C22.9697 12.3784 22.6483 11.8216 22.1265 11.5204C21.6048 11.2191 20.9619 11.2191 20.4401 11.5204C19.9183 11.8216 19.5968 12.3784 19.5968 12.9809V13.8889H18.559L18.5589 11.6358ZM22.1912 13.889H20.375L20.3752 12.9809C20.3752 12.6565 20.5482 12.3565 20.8292 12.1944C21.1101 12.0321 21.4564 12.0321 21.7374 12.1944C22.0182 12.3566 22.1914 12.6565 22.1914 12.9809L22.1912 13.889ZM12.332 5.19727C12.332 4.98222 12.5062 4.80815 12.7211 4.80815H14.2778C14.381 4.80815 14.4801 4.84914 14.553 4.92207C14.6259 4.99499 14.6669 5.09407 14.6669 5.19728V5.5864H12.3318L12.332 5.19727ZM10.7752 11.6356C10.775 11.4486 10.856 11.2706 10.9967 11.1474L12.718 9.64263C12.8029 9.56848 12.8513 9.46095 12.8509 9.34827V6.36466H14.1482L14.148 9.34827C14.148 9.46053 14.1964 9.56724 14.2809 9.64099L16.0022 11.1458C16.1431 11.2689 16.2238 11.4469 16.2238 11.6342V13.8888H15.186V12.9807C15.186 12.3782 14.8645 11.8214 14.3427 11.5203C13.8209 11.2189 13.178 11.2189 12.6562 11.5203C12.1345 11.8214 11.8131 12.3783 11.8131 12.9807V13.8888H10.7753L10.7752 11.6356ZM14.4075 13.8888H12.5913V12.9808C12.5913 12.6563 12.7646 12.3564 13.0453 12.1943C13.3263 12.032 13.6726 12.032 13.9536 12.1943C14.2345 12.3564 14.4076 12.6563 14.4076 12.9808L14.4075 13.8888ZM4.54832 5.19711C4.54832 4.98206 4.72259 4.80799 4.93744 4.80799H6.49416C6.59757 4.80799 6.69644 4.84898 6.76937 4.92191C6.84249 4.99483 6.88349 5.09391 6.88349 5.19712V5.58624H4.54836L4.54832 5.19711ZM2.9916 11.6355C2.9916 11.4484 3.07235 11.2704 3.21325 11.1472L4.93455 9.64247H4.93434C5.01921 9.56832 5.06782 9.46079 5.06721 9.34811V6.36451H6.36458V9.34811C6.36437 9.46038 6.41278 9.56708 6.49744 9.64083L8.21875 11.1456H8.21854C8.35944 11.2688 8.44019 11.4468 8.44019 11.634V13.8886H7.40238V12.9806C7.40238 12.378 7.08082 11.8213 6.55905 11.5201C6.03727 11.2187 5.39436 11.2187 4.8726 11.5201C4.35082 11.8213 4.02949 12.3781 4.02949 12.9806V13.8886H2.99167L2.9916 11.6355ZM6.62389 13.8886H4.80767L4.80787 12.9806C4.80787 12.6562 4.9809 12.3562 5.26188 12.1941C5.54286 12.0318 5.88895 12.0318 6.16992 12.1941C6.45089 12.3562 6.62393 12.6562 6.62393 12.9806L6.62389 13.8886ZM0.993969 14.6669H26.0054V15.9643H0.993969V14.6669ZM20.116 20.1154V16.7425H22.4511V20.1154H20.116ZM6.88387 16.7425V20.1154H4.54874V16.7425H6.88387ZM7.66234 16.7425H11.5542V20.1154H7.66234V16.7425ZM12.3324 16.7425H14.6676V20.1154H12.3324V16.7425ZM15.4458 16.7425H19.3377V20.1154H15.4458V16.7425ZM1.95426 16.7425H3.77049V20.1154H1.95426V16.7425ZM26.0059 22.191H0.994496V20.8936H26.0059V22.191ZM25.046 20.1154H23.2297V16.7425H25.046V20.1154Z" fill="#01C3D0"/>
</g>
</svg>
