<svg width="25" height="25" viewBox="0 0 25 25" fill="none" xmlns="http://www.w3.org/2000/svg">
<path d="M16.3359 3.66198C16.0842 3.90231 15.2625 4.72858 15.2625 5.36486C15.2625 5.83693 15.5143 6.27316 15.9232 6.5091C16.3319 6.74523 16.8357 6.74523 17.2444 6.5091C17.6534 6.27316 17.9051 5.83693 17.9051 5.36486C17.9051 4.72878 17.0834 3.90041 16.8317 3.66198C16.6928 3.52999 16.4748 3.52999 16.336 3.66198H16.3359ZM17.1843 5.36486C17.1843 5.69655 16.9156 5.96549 16.5839 5.96549C16.252 5.96549 15.9832 5.69656 15.9832 5.36486C15.9832 5.18958 16.2663 4.78825 16.5839 4.43844C16.9015 4.7873 17.1843 5.18839 17.1843 5.36486Z" fill="#FEC657"/>
<mask id="mask0_275_2285" style="mask-type:luminance" maskUnits="userSpaceOnUse" x="3" y="0" width="19" height="25">
<path d="M3.71094 0.199707H21.2891V24.7998H3.71094V0.199707Z" fill="white"/>
</mask>
<g mask="url(#mask0_275_2285)">
<path d="M19.9473 17.3523H16.9443V11.9266C16.9461 11.321 16.7053 10.7398 16.276 10.3127L12.62 6.65674V4.88443C12.62 4.78887 12.582 4.69713 12.5145 4.6296C12.447 4.56189 12.3552 4.52393 12.2597 4.52393H11.4189V3.32286H11.7792C12.1294 3.32229 12.4653 3.18286 12.713 2.93529C12.9606 2.68752 13.1 2.35184 13.1004 2.00145V0.920542H14.9931L16.3292 2.25623C16.3959 2.32776 16.4888 2.36915 16.5865 2.37087C16.6843 2.37259 16.7785 2.33444 16.8478 2.2652C16.9168 2.19615 16.955 2.10193 16.9533 2.00408C16.9515 1.90643 16.9102 1.81354 16.8386 1.74678L15.3972 0.305376H15.397C15.3297 0.237666 15.238 0.199707 15.1424 0.199707H5.53303C5.3341 0.199707 5.17273 0.361069 5.17273 0.560004C5.17273 0.75913 5.3341 0.920493 5.53303 0.920493H7.57502V2.0014C7.57559 2.35178 7.71502 2.68748 7.96259 2.93524C8.21036 3.18281 8.54604 3.32224 8.89643 3.32281H9.25673V4.52389H8.41596C8.21683 4.52389 8.05547 4.68525 8.05547 4.88437V6.65688L4.39966 10.3127C3.97032 10.7397 3.72959 11.3209 3.7313 11.9265V22.5178C3.73206 23.1228 3.97277 23.7029 4.40059 24.1307C4.82841 24.5585 5.40845 24.7992 6.01343 24.7999H19.947C20.2972 24.7996 20.6331 24.6601 20.8807 24.4124C21.1284 24.1648 21.2679 23.8289 21.2682 23.4787V18.6739C21.2679 18.3238 21.1284 17.9879 20.8807 17.7403C20.6331 17.4925 20.2972 17.3533 19.947 17.3527L19.9473 17.3523ZM16.2235 15.0221H4.45205V12.86H16.2235V15.0221ZM8.2958 2.00162V0.920513H12.3798V2.00142C12.3793 2.33292 12.1107 2.60147 11.7792 2.60206H8.89644C8.56494 2.60148 8.29639 2.33293 8.2958 2.00142V2.00162ZM9.97749 3.32286H10.6983L10.6981 4.52393H9.9773L9.97749 3.32286ZM8.77622 5.24468H11.8993V6.44595H8.77622V5.24468ZM4.9085 10.8223L8.56529 7.16631H12.1103L15.7671 10.8223C16.0612 11.1147 16.226 11.5126 16.2245 11.9272V12.1401H4.45202V11.9272C4.4503 11.5128 4.61471 11.1147 4.90845 10.8223H4.9085ZM4.45207 22.5176V15.7427H16.2236L16.2234 17.3523H11.2986C10.9484 17.3529 10.6125 17.4922 10.3649 17.7399C10.1172 17.9875 9.97772 18.3234 9.97734 18.6736V23.4783C9.97677 23.6872 10.0262 23.893 10.1213 24.079H6.01329C5.59939 24.0784 5.2025 23.9138 4.90968 23.621C4.61709 23.3282 4.45229 22.9313 4.45191 22.5174L4.45207 22.5176ZM20.5478 23.4786C20.5472 23.8101 20.2786 24.0786 19.9471 24.0792H11.2987C10.9672 24.0786 10.6987 23.8101 10.6981 23.4786V18.6738C10.6986 18.3423 10.9672 18.0737 11.2987 18.0733H19.9471C20.2786 18.0737 20.5472 18.3423 20.5478 18.6738V23.4786Z" fill="#FEC657"/>
</g>
<path d="M17.8613 19.4191C17.2584 19.017 16.4632 18.7944 15.6229 18.7944C14.7825 18.7944 13.9892 19.0159 13.3844 19.4191C12.7366 19.8515 12.3798 20.4401 12.3798 21.0777C12.3796 21.7152 12.7367 22.3019 13.3842 22.7343C13.9871 23.1363 14.7823 23.3589 15.6227 23.3589C16.463 23.3589 17.2563 23.1375 17.8611 22.7343C18.5089 22.3019 18.8657 21.7133 18.8657 21.0756C18.8659 20.4382 18.5089 19.8515 17.8613 19.4191ZM15.6227 22.6383C14.2553 22.6383 13.1002 21.9234 13.1002 21.0768C13.1002 20.2301 14.2534 19.5153 15.6227 19.5153C16.9919 19.5153 18.1451 20.2302 18.1451 21.0768C18.1451 21.9233 16.9902 22.6383 15.6227 22.6383Z" fill="#FEC657"/>
</svg>
