<svg width="23" height="24" viewBox="0 0 23 24" fill="none" xmlns="http://www.w3.org/2000/svg">
<path d="M4.22809 7.68761H6.53424C6.74653 7.68761 6.91858 7.51557 6.91858 7.30328C6.91858 7.09099 6.74653 6.91895 6.53424 6.91895H4.22809C4.0158 6.91895 3.84376 7.09099 3.84376 7.30328C3.84376 7.51557 4.0158 7.68761 4.22809 7.68761Z" fill="#54B175"/>
<path d="M4.22809 9.2252H6.53424C6.74653 9.2252 6.91858 9.05316 6.91858 8.84087C6.91858 8.62858 6.74653 8.45654 6.53424 8.45654H4.22809C4.0158 8.45654 3.84376 8.62858 3.84376 8.84087C3.84376 9.05316 4.0158 9.2252 4.22809 9.2252Z" fill="#54B175"/>
<path d="M6.14997 10.378C6.14997 10.1657 5.97793 9.99365 5.76564 9.99365H4.22814C4.01585 9.99365 3.84381 10.1657 3.84381 10.378C3.84381 10.5903 4.01585 10.7623 4.22814 10.7623H5.76564C5.97793 10.7623 6.14997 10.5903 6.14997 10.378Z" fill="#54B175"/>
<path d="M22.294 15.3751C22.294 14.4692 21.8441 13.6376 21.1025 13.14C21.1281 12.9918 21.141 12.8394 21.141 12.6844C21.141 11.4549 20.3112 10.4177 19.1828 10.0976C18.9709 7.82461 17.6718 5.82994 15.6582 4.71919C15.628 4.69917 15.5962 4.68028 15.5556 4.6574C15.5538 4.65644 15.5521 4.65587 15.5504 4.65492C15.5493 4.65434 15.5485 4.65358 15.5475 4.65301C15.5468 4.65263 15.5458 4.65282 15.5451 4.65244C14.8806 4.30149 14.1771 4.06972 13.4537 3.94824L13.4535 1.92207C13.4535 1.70978 13.2814 1.53773 13.0691 1.53773H11.5316C11.3193 1.53773 11.1473 1.70978 11.1473 1.92207V3.94785C9.86386 4.16547 8.66069 4.74321 7.68813 5.61142C7.45963 5.29118 7.19086 5.0062 6.88686 4.76533C6.90708 4.71841 6.91909 4.6671 6.91909 4.61255C6.91909 3.87173 7.20119 2.46108 8.25899 1.87339C8.41195 1.78832 8.48825 1.61056 8.44438 1.44099C8.40032 1.27162 8.24735 1.15317 8.07226 1.15317C7.20898 1.15317 6.48725 1.34238 5.92782 1.69087C6.06191 1.31836 6.30052 0.954053 6.72148 0.720215C6.87444 0.635147 6.95074 0.457383 6.90687 0.287817C6.86281 0.118442 6.70984 0 6.53475 0C4.83929 0 3.6596 0.879687 3.24324 1.88921C2.72654 1.4591 1.94608 1.15317 0.769025 1.15317C0.593932 1.15317 0.440959 1.27162 0.396901 1.44118C0.353032 1.61094 0.429326 1.78851 0.582296 1.87358C1.59929 2.43852 1.89607 3.75825 1.91784 4.51811C1.54229 4.75882 1.20183 5.05732 0.914181 5.41264C0.133908 6.377 -0.166922 7.6206 0.0894257 8.82509L2.90354 22.0072C3.03762 22.6187 3.59475 23.0625 4.22839 23.0625C4.86184 23.0625 5.41916 22.6187 5.55363 22.0051L6.23054 18.8343H10.3784C11.1692 18.8343 12.7212 19.1033 13.9494 19.5391C13.9561 19.5607 13.9601 19.5824 13.9675 19.604C13.8813 19.8513 13.8378 20.109 13.8378 20.3719C13.8378 21.6437 14.8724 22.678 16.144 22.678C16.222 22.678 16.3027 22.6735 16.3852 22.6649C16.7667 22.9224 17.2208 23.0625 17.6815 23.0625C18.9533 23.0625 19.9876 22.028 19.9876 20.7564C19.9876 20.5374 19.9573 20.323 19.897 20.1155C20.6548 19.7251 21.141 18.9448 21.141 18.0657C21.141 17.9145 21.126 17.7638 21.0964 17.6148C21.8421 17.1199 22.294 16.2873 22.294 15.3751ZM18.4017 9.99419C18.329 9.99553 18.2581 10.0074 18.1863 10.0144C18.1282 10.0201 18.0694 10.0215 18.0122 10.0308C17.9306 10.0442 17.8516 10.0674 17.7721 10.0882C17.7188 10.1021 17.6645 10.1111 17.6124 10.1283C17.5262 10.1565 17.4442 10.1948 17.3616 10.2317C17.3193 10.2505 17.275 10.2643 17.2338 10.2853C17.1119 10.3474 16.9946 10.4186 16.8832 10.4993C16.6475 10.4188 16.3997 10.3781 16.1441 10.3781C14.8723 10.3781 13.838 11.4127 13.838 12.6843C13.838 12.7419 13.8401 12.7989 13.8443 12.8552C13.8193 12.8638 13.7956 12.8729 13.7703 12.8815C13.7104 12.9015 13.6486 12.9204 13.587 12.9397C13.5048 12.9652 13.422 12.9904 13.3371 13.0143C13.2726 13.0324 13.2074 13.0499 13.1418 13.0671C13.056 13.0896 12.9694 13.1113 12.8818 13.1323C12.8149 13.1483 12.7479 13.1638 12.6802 13.1787C12.591 13.1983 12.5013 13.2168 12.4113 13.2344C12.3436 13.2477 12.2762 13.2609 12.2085 13.2731C12.1164 13.2897 12.0243 13.3046 11.932 13.3189C11.8662 13.3292 11.8004 13.3398 11.7347 13.3492C11.6394 13.3625 11.5448 13.3736 11.4504 13.3845C11.3889 13.3915 11.3271 13.3995 11.2665 13.4056C11.1627 13.4159 11.0613 13.423 10.96 13.4299C10.911 13.4333 10.8606 13.4381 10.8124 13.4407C10.6638 13.4486 10.5184 13.4531 10.3784 13.4531H7.38219L8.36793 8.82189C8.39445 8.69238 8.41333 8.56306 8.42802 8.43451C9.39198 8.33189 10.4636 7.83905 11.0842 7.23783C11.3115 7.67671 11.4067 7.99965 11.1669 8.71927C11.1149 8.8751 11.1679 9.04657 11.2984 9.14652C11.367 9.1984 11.4492 9.22491 11.5316 9.22491C11.6058 9.22491 11.68 9.20355 11.7449 9.16045C12.2601 8.81693 13.6807 7.78525 13.8908 6.73813C14.529 7.0372 15.3753 7.59585 15.3753 8.4563C15.3753 8.64474 15.5119 8.80553 15.698 8.83586C15.8825 8.86313 16.0648 8.75651 16.1243 8.57798C16.3314 7.95674 16.4615 6.98116 16.3526 6.144C17.4831 7.12554 18.2176 8.48242 18.4017 9.99419ZM13.8704 16.5264C13.614 16.3416 13.3474 16.1715 13.066 16.0282C13.3764 15.8413 13.6741 15.6267 13.9598 15.3996C13.8805 15.6347 13.8378 15.8852 13.8378 16.1438C13.8378 16.2735 13.8498 16.4011 13.8704 16.5264ZM9.59811 5.28814C9.59487 5.27498 9.58591 5.26525 9.58133 5.25266C10.206 4.94443 10.8804 4.73826 11.5783 4.65603C11.8581 4.62151 12.1518 4.61464 12.4444 4.62151C12.6397 4.62608 12.8358 4.63295 13.0242 4.65622C13.7786 4.74415 14.5087 4.97284 15.186 5.33161C15.1938 5.336 15.2017 5.34115 15.2095 5.34573C15.5105 5.50594 15.6587 6.24753 15.6197 7.05911C15.1843 6.52922 14.4885 6.09016 13.5747 5.78557C13.4272 5.73655 13.2645 5.7808 13.1627 5.89829C13.0608 6.01579 13.0397 6.18306 13.1093 6.32211C13.2727 6.64865 12.8394 7.30018 12.0725 7.95346C12.0622 7.42875 11.8621 7.05834 11.6546 6.67421C11.6017 6.57598 11.546 6.47355 11.4907 6.36274C11.3604 6.1022 10.9334 6.1022 10.8031 6.36274C10.6044 6.76042 9.91733 7.23095 9.15386 7.49077C9.86475 6.41103 9.61238 5.34521 9.59808 5.28818L9.59811 5.28814ZM11.9159 2.3064H12.6846V3.85459C12.5576 3.84754 12.4292 3.84391 12.3003 3.84391C12.1713 3.84391 12.043 3.84754 11.9159 3.85459L11.9159 2.3064ZM8.8777 5.65611C8.90402 5.96223 8.88133 6.60406 8.38312 7.23863C8.37015 7.16958 8.3568 7.10073 8.34021 7.03225C8.32609 6.97408 8.30893 6.91705 8.29214 6.85944C8.26449 6.7637 8.23397 6.6689 8.19926 6.57506C8.17751 6.51631 8.15462 6.45852 8.13002 6.40092C8.1138 6.36277 8.1016 6.32309 8.08424 6.28552C8.33143 6.05321 8.59753 5.84362 8.8777 5.65611ZM6.9238 2.06895C6.43685 2.74492 6.20988 3.5876 6.16066 4.31026C5.91538 4.18666 5.66115 4.08004 5.39372 4.00527C5.45857 3.22041 5.81429 2.39663 6.9238 2.06895ZM5.43952 0.937308C5.15647 1.41014 5.00369 1.99893 4.99892 2.6604C4.80514 3.01021 4.68249 3.41592 4.63596 3.87119C4.50092 3.85822 4.36607 3.84392 4.22835 3.84392C4.22187 3.84392 4.21538 3.84506 4.2089 3.84506C4.17304 3.48572 4.07576 3.05029 3.85012 2.63427C3.88179 1.95429 4.48029 1.25088 5.43952 0.937308ZM1.91359 2.06397C3.01203 2.3783 3.37385 3.1647 3.44518 3.92056C3.17606 3.96977 2.91476 4.04377 2.66315 4.14181C2.59201 3.45709 2.3658 2.68917 1.91354 2.06393L1.91359 2.06397ZM4.80226 21.8428C4.74485 22.1043 4.50357 22.2941 4.22834 22.2941C3.95292 22.2941 3.71164 22.1043 3.6548 21.8447L0.841278 8.665C0.633568 7.68863 0.877899 6.67965 1.51169 5.89669C2.17199 5.08072 3.16232 4.61285 4.22834 4.61285C5.50759 4.61285 6.67604 5.29493 7.278 6.39337C7.54598 6.88032 7.68769 7.42618 7.68769 7.97227C7.68769 8.1981 7.66309 8.43214 7.6154 8.66485L5.54363 18.3694V18.3698L4.80226 21.8428ZM6.39469 18.066L7.21735 14.2223H10.3784C10.5272 14.2223 10.6815 14.2174 10.8392 14.2092C10.8924 14.2063 10.9473 14.2011 11.0013 14.1975C11.1079 14.1903 11.2144 14.1826 11.3235 14.172C11.3881 14.1657 11.4536 14.1575 11.519 14.15C11.6195 14.1386 11.7198 14.1266 11.8215 14.1125C11.8919 14.1027 11.9621 14.0917 12.0326 14.0806C12.1307 14.0653 12.2279 14.0493 12.326 14.032C12.3981 14.019 12.4696 14.0056 12.5413 13.9915C12.6384 13.9725 12.7347 13.9524 12.8309 13.9314C12.9016 13.916 12.9716 13.9005 13.0414 13.884C13.1383 13.8611 13.2333 13.8368 13.3281 13.812C13.3949 13.7947 13.4614 13.7777 13.5268 13.7594C13.6247 13.7321 13.7191 13.7029 13.8137 13.6738C13.8725 13.6556 13.9324 13.6381 13.9898 13.6192C14.0027 13.615 14.0165 13.6112 14.0294 13.607C14.0512 13.6572 14.0779 13.7049 14.1031 13.7533C14.1153 13.7769 14.1258 13.8014 14.1389 13.8244C14.1849 13.9055 14.2351 13.9841 14.2911 14.0592C13.668 14.7289 12.8375 15.3368 12.0151 15.7186C11.873 15.7846 11.7851 15.9303 11.7931 16.0867C11.8009 16.2433 11.9031 16.3793 12.051 16.4306C12.8272 16.6996 13.5352 17.1489 14.1145 17.7378C14.1077 17.7502 14.1029 17.7635 14.0962 17.7761C14.0844 17.7986 14.0745 17.8219 14.0634 17.8448C14.0266 17.9214 13.9944 18 13.9665 18.0803C13.9579 18.1051 13.9486 18.1295 13.9408 18.1545C13.9101 18.2543 13.8853 18.3561 13.8685 18.4601C13.8654 18.4793 13.8645 18.499 13.8618 18.5182C13.854 18.5753 13.8456 18.6321 13.842 18.6899C12.597 18.2955 11.1726 18.066 10.3784 18.066L6.39469 18.066ZM20.4748 17.0891C20.3035 17.176 20.2226 17.3761 20.2856 17.5575C20.3432 17.7235 20.3722 17.8944 20.3722 18.066C20.3722 18.7454 19.9373 19.3363 19.2899 19.5362C19.1825 19.5694 19.095 19.6479 19.0504 19.7515C19.0059 19.8549 19.009 19.9724 19.0586 20.0735C19.165 20.2894 19.2188 20.5192 19.2188 20.7569C19.2188 21.6047 18.5291 22.2944 17.6813 22.2944C17.3309 22.2944 16.9998 22.1794 16.724 21.9617C16.6557 21.9079 16.5718 21.8792 16.486 21.8792C16.4644 21.8792 16.4427 21.8811 16.4209 21.8849C16.3237 21.9013 16.2304 21.9097 16.1442 21.9097C15.2964 21.9097 14.6067 21.22 14.6067 20.3722C14.6067 20.1593 14.6492 19.9514 14.7335 19.7544C14.7749 19.6571 14.7745 19.5473 14.7324 19.4502C14.6912 19.3554 14.6631 19.2652 14.6465 19.174C14.6448 19.1637 14.6414 19.154 14.6387 19.144C14.6189 19.0399 14.6067 18.9358 14.6067 18.8347C14.6067 18.5011 14.7104 18.186 14.9166 17.9098C14.9531 17.8566 14.995 17.8061 15.0398 17.7612C15.1888 17.6125 15.1901 17.3714 15.0429 17.2207C14.7614 16.9329 14.6067 16.5506 14.6067 16.144C14.6067 15.5501 14.9391 15.0196 15.474 14.7602C15.6073 14.6956 15.6914 14.5599 15.6906 14.4119C15.6897 14.2639 15.6037 14.1294 15.4698 14.0663C15.3229 13.9975 15.1898 13.904 15.0706 13.785C14.8567 13.5775 14.7106 13.316 14.6452 13.018C14.6193 12.9145 14.6067 12.8054 14.6067 12.6846C14.6067 11.8368 15.2964 11.1471 16.1442 11.1471C16.37 11.1471 16.5854 11.1944 16.7843 11.2877C16.9224 11.3522 17.0856 11.3291 17.2007 11.2288C17.2825 11.1573 17.3696 11.0951 17.4601 11.0396C17.4696 11.0337 17.4789 11.0275 17.4885 11.0218C17.7713 10.8549 18.0923 10.7672 18.4334 10.7643C18.4441 10.7643 18.4548 10.7641 18.4656 10.7643C19.5179 10.7727 20.3722 11.6303 20.3722 12.6847C20.3722 12.87 20.3467 13.0488 20.2963 13.2153C20.2429 13.3923 20.3228 13.5822 20.4867 13.6673C21.1273 14.0011 21.5254 14.6555 21.5254 15.3753C21.5254 16.1033 21.1227 16.76 20.4748 17.0891Z" fill="#54B175"/>
</svg>
